<svg width="422" height="352" viewBox="0 0 422 352" fill="none" xmlns="http://www.w3.org/2000/svg">
<g clip-path="url(#clip0_140_558)">
<path d="M62.17 270.29C62.17 270.29 102.58 321.46 171.64 323.54C240.7 325.62 302.46 282.54 353.41 249.02C404.36 215.5 421.08 159.34 395.64 113.02C370.2 66.7 324.04 82.57 268.64 50.02C213.24 17.47 203.31 0.39997 139 3.31997C74.69 6.23997 21.54 74.92 23.88 151.86C26.22 228.8 62.17 270.29 62.17 270.29Z" fill="#534CFF"/>
<path opacity="0.7" d="M62.17 270.29C62.17 270.29 102.58 321.46 171.64 323.54C240.7 325.62 302.46 282.54 353.41 249.02C404.36 215.5 421.08 159.34 395.64 113.02C370.2 66.7 324.04 82.57 268.64 50.02C213.24 17.47 203.31 0.39997 139 3.31997C74.69 6.23997 21.54 74.92 23.88 151.86C26.22 228.8 62.17 270.29 62.17 270.29Z" fill="white"/>
<path d="M74.7299 17.08C74.6699 17.08 75.4299 13.35 75.4999 13.08C76.3599 10.41 79.5999 5.76998 82.7299 5.77998C83.2513 5.79469 83.7638 5.91917 84.2338 6.1453C84.7038 6.37144 85.1209 6.69415 85.4578 7.09237C85.7947 7.49059 86.0438 7.95537 86.1889 8.45638C86.334 8.95739 86.3718 9.48336 86.2999 9.99999C86.0699 12.2 84.0899 14.08 82.2999 15.16C80.1999 16.47 74.7299 17.08 74.7299 17.08Z" fill="#534CFF"/>
<path d="M68.6599 -7.99999C71.6599 -6.93999 73.0799 -1.47999 72.9799 1.32001C72.9799 1.56001 72.4199 5.32001 72.3699 5.32001H72.3099C72.5399 6.18001 72.7899 7.11001 73.0399 8.13001C73.4799 10.01 73.9599 12.13 74.3299 14.49C74.7589 17.0181 75.0394 19.5691 75.1699 22.13C75.3294 24.9996 75.2324 27.8777 74.8799 30.73C74.8753 30.7632 74.8753 30.7968 74.8799 30.83C75.2699 30 76.4299 27.7 76.5299 27.54C78.0699 25.2 82.4099 21.54 85.4399 22.41C85.9374 22.5617 86.3973 22.8167 86.7897 23.1581C87.182 23.4996 87.4979 23.9199 87.7169 24.3918C87.9358 24.8636 88.0528 25.3762 88.0602 25.8963C88.0676 26.4164 87.9653 26.9322 87.7599 27.41C86.9599 29.47 84.5599 30.76 82.5499 31.33C80.2799 31.98 75.2199 31.22 74.8199 31.15C74.3923 34.0451 73.7709 36.9082 72.9599 39.72C72.4933 41.36 71.9866 42.9967 71.4399 44.63C71.7899 43.92 72.1199 43.29 72.1699 43.21C73.7099 40.86 78.0599 37.21 81.0799 38.08C81.5774 38.2317 82.0373 38.4867 82.4297 38.8281C82.822 39.1696 83.1379 39.5899 83.3569 40.0618C83.5758 40.5336 83.6928 41.0462 83.7002 41.5663C83.7076 42.0864 83.6053 42.6022 83.3999 43.08C82.5999 45.14 80.1999 46.43 78.1899 47C76.1799 47.57 71.8199 47 70.6799 46.85L70.0499 48.73C69.0499 51.73 67.9599 54.73 67.0499 57.67C66.7199 58.67 66.4299 59.75 66.1399 60.79C66.4599 60.16 66.7299 59.63 66.7799 59.55C68.3099 57.21 72.6599 53.55 75.6799 54.42C76.1765 54.5734 76.6354 54.8291 77.0271 55.1706C77.4189 55.5122 77.7346 55.932 77.9542 56.4031C78.1737 56.8742 78.2921 57.386 78.3017 57.9056C78.3113 58.4253 78.2119 58.9411 78.0099 59.42C77.2099 61.49 74.7999 62.77 72.7899 63.35C70.7799 63.93 66.8499 63.42 65.4899 63.23C65.2199 64.3 64.9599 65.37 64.7499 66.42C64.6199 67.15 64.4499 67.83 64.3599 68.56L64.0599 70.71C63.9199 72.08 63.7599 73.49 63.6599 74.83C63.5799 75.76 63.5199 76.65 63.4599 77.55C63.7799 76.55 64.4599 74.48 64.4599 74.32C65.5674 72.1199 67.2199 70.2402 69.2599 68.86C69.3687 68.6051 69.5062 68.3636 69.6699 68.14C69.953 67.7031 70.3252 67.3309 70.762 67.0476C71.1988 66.7644 71.6905 66.5765 72.2048 66.4963C72.7192 66.416 73.2448 66.4453 73.7471 66.5821C74.2494 66.7188 74.7172 66.9601 75.1199 67.29C77.4999 69.34 76.8999 74.96 75.8099 77.54C75.7499 77.69 74.8599 79.26 74.2899 80.25C74.7199 79.72 75.1199 79.2 75.5699 78.67C76.4399 77.6 77.3399 76.56 78.2999 75.44L79.7699 73.85C80.2499 73.31 80.8299 72.85 81.3599 72.26C82.6099 71.05 83.9399 69.88 85.3099 68.73C84.3799 67.97 81.0999 65.21 80.1599 63.33C79.2199 61.45 78.5499 58.82 79.5299 56.83C79.7455 56.3554 80.0583 55.9314 80.4482 55.5855C80.8381 55.2396 81.2964 54.9795 81.7932 54.8221C82.2901 54.6646 82.8145 54.6133 83.3325 54.6716C83.8505 54.7298 84.3504 54.8962 84.7999 55.16C87.4499 56.83 87.7199 62.48 87.0299 65.16C87.0299 65.33 86.2699 67.22 85.8599 68.25C86.6899 67.57 87.5099 66.89 88.3699 66.25C90.8499 64.34 93.4199 62.47 95.9699 60.6L98.2999 58.88C97.9699 58.61 94.0099 55.41 92.9499 53.3C92.0199 51.43 91.3399 48.79 92.3199 46.81C92.5342 46.3344 92.8464 45.9093 93.2362 45.5624C93.6259 45.2156 94.0844 44.9549 94.5817 44.7973C95.0791 44.6397 95.604 44.5888 96.1224 44.6478C96.6407 44.7069 97.1408 44.8746 97.5899 45.14C100.25 46.8 100.51 52.45 99.8199 55.14C99.7699 55.34 98.7399 58.06 98.4499 58.74C100.15 57.47 101.84 56.19 103.45 54.85C105.64 53.0643 107.712 51.1368 109.65 49.08C109.5 48.95 105.35 45.63 104.27 43.48C103.33 41.61 102.66 38.96 103.64 36.98C103.854 36.5058 104.166 36.0819 104.555 35.7361C104.944 35.3902 105.402 35.1301 105.898 34.9726C106.394 34.8151 106.917 34.7637 107.435 34.8219C107.952 34.88 108.451 35.0463 108.9 35.31C111.56 36.98 111.83 42.63 111.14 45.31C111.14 45.49 110.31 47.56 109.92 48.54L110.07 48.64C111.964 46.5141 113.668 44.2252 115.16 41.8C116 40.47 116.72 39.16 117.4 37.87C116.56 37.33 112.77 34.82 111.58 32.99C110.39 31.16 109.49 28.68 110.24 26.6C110.401 26.1042 110.664 25.6478 111.013 25.2606C111.362 24.8733 111.788 24.564 112.265 24.3526C112.741 24.1413 113.257 24.0327 113.778 24.034C114.299 24.0353 114.815 24.1464 115.29 24.36C118.12 25.73 119 31.36 118.61 34.09C118.61 34.24 118.21 35.75 117.92 36.84C118.21 36.25 118.53 35.65 118.8 35.08C119.8 32.95 120.65 30.93 121.35 29.08C121.75 28.08 122.08 27.13 122.35 26.25C121.8 25.25 119.66 21.41 119.45 19.25C119.24 17.09 119.58 14.47 121.21 12.97C121.581 12.6048 122.025 12.3217 122.513 12.1393C123 11.9569 123.521 11.8792 124.041 11.9113C124.56 11.9434 125.068 12.0845 125.529 12.3255C125.991 12.5664 126.397 12.9019 126.72 13.31C128.6 15.82 126.81 21.19 125.19 23.47C125.05 23.67 122.5 26.47 122.47 26.47V26.41C122.19 27.26 121.89 28.17 121.53 29.15C120.87 30.97 120.1 33.01 119.11 35.15C118.063 37.4916 116.885 39.7719 115.58 41.98C114.124 44.4568 112.451 46.7993 110.58 48.98L110.51 49.06C111.29 48.58 113.51 47.3 113.7 47.22C116.28 46.12 121.9 45.5 123.96 47.86C124.292 48.2616 124.535 48.7286 124.674 49.2305C124.813 49.7323 124.845 50.2579 124.768 50.7729C124.69 51.2879 124.505 51.7809 124.225 52.2198C123.945 52.6586 123.575 53.0335 123.14 53.32C121.33 54.6 118.62 54.32 116.62 53.72C114.37 53 110.62 49.58 110.28 49.3C108.327 51.4791 106.229 53.5237 104 55.42C102.71 56.53 101.37 57.61 99.9999 58.68C100.69 58.28 101.31 57.93 101.4 57.89C103.97 56.79 109.59 56.17 111.65 58.53C111.983 58.931 112.228 59.3979 112.368 59.9C112.508 60.4021 112.54 60.9281 112.463 61.4436C112.385 61.9591 112.2 62.4525 111.918 62.8913C111.637 63.3301 111.266 63.7045 110.83 63.99C109.03 65.27 106.31 64.99 104.32 64.39C102.33 63.79 98.9999 60.89 98.1399 60.12C97.6099 60.52 97.1399 60.93 96.5699 61.34C94.0599 63.26 91.5699 65.17 89.1199 67.13C88.2699 67.81 87.4599 68.52 86.6399 69.23L87.8599 68.55C90.4299 67.45 96.0499 66.82 98.1099 69.18C98.4417 69.5825 98.6851 70.0502 98.8244 70.5529C98.9636 71.0555 98.9957 71.5818 98.9183 72.0976C98.841 72.6135 98.6561 73.1073 98.3755 73.547C98.095 73.9867 97.7251 74.3625 97.2899 74.65C95.4899 75.93 92.7699 75.65 90.7799 75.04C88.7899 74.43 85.7799 71.82 84.7799 70.91C83.9699 71.66 83.1499 72.41 82.3999 73.17C81.8899 73.7 81.3999 74.17 80.8999 74.74L79.4599 76.36C78.5899 77.43 77.6799 78.52 76.8499 79.58C76.2699 80.31 75.7299 81.02 75.1899 81.74C76.0199 81.04 77.6999 79.74 77.8499 79.62C80.2199 78.14 85.6899 76.62 88.0799 78.7C88.4673 79.0479 88.777 79.4735 88.9891 79.949C89.2011 80.4245 89.3107 80.9394 89.3107 81.46C89.3107 81.9807 89.2011 82.4955 88.9891 82.971C88.777 83.4465 88.4673 83.8721 88.0799 84.22C86.4799 85.76 83.7599 85.92 81.6999 85.6C79.4199 85.24 75.2999 82.6 74.7899 82.22C73.8899 83.41 73.0299 84.56 72.2299 85.67C69.4599 89.5 67.2999 92.8 65.8199 95.12L65.6699 95.36L63.7499 94.43L64.0499 93.97C65.5999 91.65 67.8599 88.37 70.7399 84.57C71.6499 83.36 72.6399 82.09 73.6699 80.8C72.5988 79.6296 71.5971 78.3975 70.6699 77.11C68.4599 77.98 63.8799 78.01 63.2799 78.01C63.1899 79.49 63.1099 80.94 63.0499 82.3C62.8499 87.02 62.8699 90.96 62.9199 93.72V94.04L60.8099 93.04C60.8099 90.3 60.9199 86.6 61.1999 82.22C61.2899 80.72 61.4199 79.11 61.5699 77.46C60.9799 77.31 56.2099 76.09 54.4099 74.65C52.7799 73.34 51.0599 71.23 51.1199 69.01C51.1159 68.4892 51.2216 67.9734 51.4301 67.4961C51.6387 67.0189 51.9453 66.5909 52.3302 66.24C52.7151 65.8891 53.1695 65.6231 53.6639 65.4595C54.1584 65.2958 54.6817 65.238 55.1999 65.29C58.3099 65.69 60.9199 70.71 61.4299 73.46C61.4299 73.63 61.5899 75.46 61.6499 76.56C61.7199 75.89 61.7699 75.23 61.8499 74.56C61.9799 73.19 62.1599 71.83 62.3499 70.36C62.4599 69.65 62.5799 68.94 62.6899 68.22C62.7999 67.5 62.9899 66.76 63.1399 66.02C63.5199 64.32 63.9799 62.61 64.4899 60.9C63.2899 60.78 59.0399 60.28 57.2199 59.23C55.3999 58.18 53.3799 56.36 53.1099 54.16C53.0263 53.6454 53.0521 53.119 53.1856 52.615C53.3191 52.111 53.5573 51.6409 53.8847 51.2352C54.2121 50.8294 54.6214 50.4973 55.0858 50.2603C55.5502 50.0234 56.0593 49.887 56.5799 49.86C59.7099 49.79 63.0499 54.35 63.9699 57C64.0299 57.16 64.4799 59.13 64.7099 60.22C65.0199 59.22 65.3199 58.17 65.7099 57.14C66.7099 54.14 67.8399 51.21 68.9399 48.24C69.2799 47.33 69.5999 46.42 69.9399 45.51C69.5099 45.51 64.4399 44.98 62.3999 43.81C60.5899 42.81 58.5699 40.94 58.2899 38.74C58.2079 38.2256 58.2349 37.6998 58.369 37.1965C58.5032 36.6932 58.7415 36.2236 59.0686 35.8183C59.3957 35.4129 59.8043 35.0808 60.2679 34.8434C60.7315 34.6059 61.2398 34.4685 61.7599 34.44C64.8999 34.37 68.2399 38.93 69.1599 41.58C69.2299 41.78 69.8699 44.58 69.9999 45.34C70.7199 43.34 71.4299 41.34 71.9999 39.34C72.8456 36.6399 73.5137 33.8874 73.9999 31.1C73.7999 31.1 68.5099 30.6 66.4199 29.4C64.5999 28.4 62.5799 26.53 62.3099 24.33C62.2262 23.8159 62.252 23.29 62.3856 22.7866C62.5192 22.2832 62.7576 21.8136 63.0851 21.4087C63.4127 21.0037 63.822 20.6725 64.2864 20.4366C64.7508 20.2008 65.2597 20.0656 65.7799 20.04C68.9099 19.96 72.2499 24.52 73.1699 27.17C73.2299 27.34 73.7299 29.5 73.9399 30.54H74.1099C74.523 27.7233 74.6836 24.8753 74.5899 22.03C74.5899 20.46 74.4399 18.97 74.2899 17.52C73.2899 17.52 68.7499 17.52 66.7499 16.65C64.7499 15.78 62.6199 14.22 62.0999 12.07C61.9612 11.5664 61.9304 11.0391 62.0096 10.5228C62.0887 10.0064 62.276 9.51257 62.5592 9.0736C62.8425 8.63464 63.2152 8.26043 63.653 7.97547C64.0908 7.69052 64.5839 7.50123 65.0999 7.42001C68.2099 6.99001 72.0299 11.17 73.2399 13.69C73.2999 13.83 73.8199 15.3 74.1699 16.38C74.0999 15.72 74.0299 15.04 73.9399 14.38C73.6299 12.03 73.1899 9.90001 72.7899 8.01001C72.5499 6.94001 72.3199 6.01001 72.0899 5.08001C71.0899 4.58001 67.1699 2.52001 65.8299 0.86001C64.4899 -0.79999 63.2899 -3.20999 63.8299 -5.34999C63.9494 -5.85535 64.1737 -6.32999 64.4882 -6.7432C64.8028 -7.15641 65.2005 -7.499 65.6558 -7.74878C66.1111 -7.99857 66.6137 -8.15 67.1312 -8.19327C67.6487 -8.23655 68.1695 -8.1707 68.6599 -7.99999Z" fill="#534CFF"/>
<path d="M125.34 40.29C122.89 40.19 117.99 37.68 117.99 37.68C117.99 37.68 120.62 34.95 120.81 34.8C123 33.06 128.26 30.97 130.87 32.71C131.297 33.0089 131.655 33.3945 131.923 33.8416C132.19 34.2887 132.36 34.7872 132.421 35.3045C132.483 35.8218 132.434 36.3463 132.279 36.8435C132.123 37.3407 131.865 37.7996 131.52 38.19C130.12 39.9 127.43 40.38 125.34 40.29Z" fill="#534CFF"/>
<g opacity="0.5">
<path d="M74.7299 17.08C74.6699 17.08 75.4299 13.35 75.4999 13.08C76.3599 10.41 79.5999 5.76998 82.7299 5.77998C83.2513 5.79469 83.7638 5.91917 84.2338 6.1453C84.7038 6.37144 85.1209 6.69415 85.4578 7.09237C85.7947 7.49059 86.0438 7.95537 86.1889 8.45638C86.334 8.95739 86.3718 9.48336 86.2999 9.99999C86.0699 12.2 84.0899 14.08 82.2999 15.16C80.1999 16.47 74.7299 17.08 74.7299 17.08Z" fill="white"/>
<path d="M68.6599 -7.99999C71.6599 -6.93999 73.0799 -1.47999 72.9799 1.32001C72.9799 1.56001 72.4199 5.32001 72.3699 5.32001H72.3099C72.5399 6.18001 72.7899 7.11001 73.0399 8.13001C73.4799 10.01 73.9599 12.13 74.3299 14.49C74.7589 17.0181 75.0394 19.5691 75.1699 22.13C75.3294 24.9996 75.2324 27.8777 74.8799 30.73C74.8753 30.7632 74.8753 30.7968 74.8799 30.83C75.2699 30 76.4299 27.7 76.5299 27.54C78.0699 25.2 82.4099 21.54 85.4399 22.41C85.9374 22.5617 86.3973 22.8167 86.7897 23.1581C87.182 23.4996 87.4979 23.9199 87.7169 24.3918C87.9358 24.8636 88.0528 25.3762 88.0602 25.8963C88.0676 26.4164 87.9653 26.9322 87.7599 27.41C86.9599 29.47 84.5599 30.76 82.5499 31.33C80.2799 31.98 75.2199 31.22 74.8199 31.15C74.3923 34.0451 73.7709 36.9082 72.9599 39.72C72.4933 41.36 71.9866 42.9967 71.4399 44.63C71.7899 43.92 72.1199 43.29 72.1699 43.21C73.7099 40.86 78.0599 37.21 81.0799 38.08C81.5774 38.2317 82.0373 38.4867 82.4297 38.8281C82.822 39.1696 83.1379 39.5899 83.3569 40.0618C83.5758 40.5336 83.6928 41.0462 83.7002 41.5663C83.7076 42.0864 83.6053 42.6022 83.3999 43.08C82.5999 45.14 80.1999 46.43 78.1899 47C76.1799 47.57 71.8199 47 70.6799 46.85L70.0499 48.73C69.0499 51.73 67.9599 54.73 67.0499 57.67C66.7199 58.67 66.4299 59.75 66.1399 60.79C66.4599 60.16 66.7299 59.63 66.7799 59.55C68.3099 57.21 72.6599 53.55 75.6799 54.42C76.1765 54.5734 76.6354 54.8291 77.0271 55.1706C77.4189 55.5122 77.7346 55.932 77.9542 56.4031C78.1737 56.8742 78.2921 57.386 78.3017 57.9056C78.3113 58.4253 78.2119 58.9411 78.0099 59.42C77.2099 61.49 74.7999 62.77 72.7899 63.35C70.7799 63.93 66.8499 63.42 65.4899 63.23C65.2199 64.3 64.9599 65.37 64.7499 66.42C64.6199 67.15 64.4499 67.83 64.3599 68.56L64.0599 70.71C63.9199 72.08 63.7599 73.49 63.6599 74.83C63.5799 75.76 63.5199 76.65 63.4599 77.55C63.7799 76.55 64.4599 74.48 64.4599 74.32C65.5674 72.1199 67.2199 70.2402 69.2599 68.86C69.3687 68.6051 69.5062 68.3636 69.6699 68.14C69.953 67.7031 70.3252 67.3309 70.762 67.0476C71.1988 66.7644 71.6905 66.5765 72.2048 66.4963C72.7192 66.416 73.2448 66.4453 73.7471 66.5821C74.2494 66.7188 74.7172 66.9601 75.1199 67.29C77.4999 69.34 76.8999 74.96 75.8099 77.54C75.7499 77.69 74.8599 79.26 74.2899 80.25C74.7199 79.72 75.1199 79.2 75.5699 78.67C76.4399 77.6 77.3399 76.56 78.2999 75.44L79.7699 73.85C80.2499 73.31 80.8299 72.85 81.3599 72.26C82.6099 71.05 83.9399 69.88 85.3099 68.73C84.3799 67.97 81.0999 65.21 80.1599 63.33C79.2199 61.45 78.5499 58.82 79.5299 56.83C79.7455 56.3554 80.0583 55.9314 80.4482 55.5855C80.8381 55.2396 81.2964 54.9795 81.7932 54.8221C82.2901 54.6646 82.8145 54.6133 83.3325 54.6716C83.8505 54.7298 84.3504 54.8962 84.7999 55.16C87.4499 56.83 87.7199 62.48 87.0299 65.16C87.0299 65.33 86.2699 67.22 85.8599 68.25C86.6899 67.57 87.5099 66.89 88.3699 66.25C90.8499 64.34 93.4199 62.47 95.9699 60.6L98.2999 58.88C97.9699 58.61 94.0099 55.41 92.9499 53.3C92.0199 51.43 91.3399 48.79 92.3199 46.81C92.5342 46.3344 92.8464 45.9093 93.2362 45.5624C93.6259 45.2156 94.0844 44.9549 94.5817 44.7973C95.0791 44.6397 95.604 44.5888 96.1224 44.6478C96.6407 44.7069 97.1408 44.8746 97.5899 45.14C100.25 46.8 100.51 52.45 99.8199 55.14C99.7699 55.34 98.7399 58.06 98.4499 58.74C100.15 57.47 101.84 56.19 103.45 54.85C105.64 53.0643 107.712 51.1368 109.65 49.08C109.5 48.95 105.35 45.63 104.27 43.48C103.33 41.61 102.66 38.96 103.64 36.98C103.854 36.5058 104.166 36.0819 104.555 35.7361C104.944 35.3902 105.402 35.1301 105.898 34.9726C106.394 34.8151 106.917 34.7637 107.435 34.8219C107.952 34.88 108.451 35.0463 108.9 35.31C111.56 36.98 111.83 42.63 111.14 45.31C111.14 45.49 110.31 47.56 109.92 48.54L110.07 48.64C111.964 46.5141 113.668 44.2252 115.16 41.8C116 40.47 116.72 39.16 117.4 37.87C116.56 37.33 112.77 34.82 111.58 32.99C110.39 31.16 109.49 28.68 110.24 26.6C110.401 26.1042 110.664 25.6478 111.013 25.2606C111.362 24.8733 111.788 24.564 112.265 24.3526C112.741 24.1413 113.257 24.0327 113.778 24.034C114.299 24.0353 114.815 24.1464 115.29 24.36C118.12 25.73 119 31.36 118.61 34.09C118.61 34.24 118.21 35.75 117.92 36.84C118.21 36.25 118.53 35.65 118.8 35.08C119.8 32.95 120.65 30.93 121.35 29.08C121.75 28.08 122.08 27.13 122.35 26.25C121.8 25.25 119.66 21.41 119.45 19.25C119.24 17.09 119.58 14.47 121.21 12.97C121.581 12.6048 122.025 12.3217 122.513 12.1393C123 11.9569 123.521 11.8792 124.041 11.9113C124.56 11.9434 125.068 12.0845 125.529 12.3255C125.991 12.5664 126.397 12.9019 126.72 13.31C128.6 15.82 126.81 21.19 125.19 23.47C125.05 23.67 122.5 26.47 122.47 26.47V26.41C122.19 27.26 121.89 28.17 121.53 29.15C120.87 30.97 120.1 33.01 119.11 35.15C118.063 37.4916 116.885 39.7719 115.58 41.98C114.124 44.4568 112.451 46.7993 110.58 48.98L110.51 49.06C111.29 48.58 113.51 47.3 113.7 47.22C116.28 46.12 121.9 45.5 123.96 47.86C124.292 48.2616 124.535 48.7286 124.674 49.2305C124.813 49.7323 124.845 50.2579 124.768 50.7729C124.69 51.2879 124.505 51.7809 124.225 52.2198C123.945 52.6586 123.575 53.0335 123.14 53.32C121.33 54.6 118.62 54.32 116.62 53.72C114.37 53 110.62 49.58 110.28 49.3C108.327 51.4791 106.229 53.5237 104 55.42C102.71 56.53 101.37 57.61 99.9999 58.68C100.69 58.28 101.31 57.93 101.4 57.89C103.97 56.79 109.59 56.17 111.65 58.53C111.983 58.931 112.228 59.3979 112.368 59.9C112.508 60.4021 112.54 60.9281 112.463 61.4436C112.385 61.9591 112.2 62.4525 111.918 62.8913C111.637 63.3301 111.266 63.7045 110.83 63.99C109.03 65.27 106.31 64.99 104.32 64.39C102.33 63.79 98.9999 60.89 98.1399 60.12C97.6099 60.52 97.1399 60.93 96.5699 61.34C94.0599 63.26 91.5699 65.17 89.1199 67.13C88.2699 67.81 87.4599 68.52 86.6399 69.23L87.8599 68.55C90.4299 67.45 96.0499 66.82 98.1099 69.18C98.4417 69.5825 98.6851 70.0502 98.8244 70.5529C98.9636 71.0555 98.9957 71.5818 98.9183 72.0976C98.841 72.6135 98.6561 73.1073 98.3755 73.547C98.095 73.9867 97.7251 74.3625 97.2899 74.65C95.4899 75.93 92.7699 75.65 90.7799 75.04C88.7899 74.43 85.7799 71.82 84.7799 70.91C83.9699 71.66 83.1499 72.41 82.3999 73.17C81.8899 73.7 81.3999 74.17 80.8999 74.74L79.4599 76.36C78.5899 77.43 77.6799 78.52 76.8499 79.58C76.2699 80.31 75.7299 81.02 75.1899 81.74C76.0199 81.04 77.6999 79.74 77.8499 79.62C80.2199 78.14 85.6899 76.62 88.0799 78.7C88.4673 79.0479 88.777 79.4735 88.9891 79.949C89.2011 80.4245 89.3107 80.9394 89.3107 81.46C89.3107 81.9807 89.2011 82.4955 88.9891 82.971C88.777 83.4465 88.4673 83.8721 88.0799 84.22C86.4799 85.76 83.7599 85.92 81.6999 85.6C79.4199 85.24 75.2999 82.6 74.7899 82.22C73.8899 83.41 73.0299 84.56 72.2299 85.67C69.4599 89.5 67.2999 92.8 65.8199 95.12L65.6699 95.36L63.7499 94.43L64.0499 93.97C65.5999 91.65 67.8599 88.37 70.7399 84.57C71.6499 83.36 72.6399 82.09 73.6699 80.8C72.5988 79.6296 71.5971 78.3975 70.6699 77.11C68.4599 77.98 63.8799 78.01 63.2799 78.01C63.1899 79.49 63.1099 80.94 63.0499 82.3C62.8499 87.02 62.8699 90.96 62.9199 93.72V94.04L60.8099 93.04C60.8099 90.3 60.9199 86.6 61.1999 82.22C61.2899 80.72 61.4199 79.11 61.5699 77.46C60.9799 77.31 56.2099 76.09 54.4099 74.65C52.7799 73.34 51.0599 71.23 51.1199 69.01C51.1159 68.4892 51.2216 67.9734 51.4301 67.4961C51.6387 67.0189 51.9453 66.5909 52.3302 66.24C52.7151 65.8891 53.1695 65.6231 53.6639 65.4595C54.1584 65.2958 54.6817 65.238 55.1999 65.29C58.3099 65.69 60.9199 70.71 61.4299 73.46C61.4299 73.63 61.5899 75.46 61.6499 76.56C61.7199 75.89 61.7699 75.23 61.8499 74.56C61.9799 73.19 62.1599 71.83 62.3499 70.36C62.4599 69.65 62.5799 68.94 62.6899 68.22C62.7999 67.5 62.9899 66.76 63.1399 66.02C63.5199 64.32 63.9799 62.61 64.4899 60.9C63.2899 60.78 59.0399 60.28 57.2199 59.23C55.3999 58.18 53.3799 56.36 53.1099 54.16C53.0263 53.6454 53.0521 53.119 53.1856 52.615C53.3191 52.111 53.5573 51.6409 53.8847 51.2352C54.2121 50.8294 54.6214 50.4973 55.0858 50.2603C55.5502 50.0234 56.0593 49.887 56.5799 49.86C59.7099 49.79 63.0499 54.35 63.9699 57C64.0299 57.16 64.4799 59.13 64.7099 60.22C65.0199 59.22 65.3199 58.17 65.7099 57.14C66.7099 54.14 67.8399 51.21 68.9399 48.24C69.2799 47.33 69.5999 46.42 69.9399 45.51C69.5099 45.51 64.4399 44.98 62.3999 43.81C60.5899 42.81 58.5699 40.94 58.2899 38.74C58.2079 38.2256 58.2349 37.6998 58.369 37.1965C58.5032 36.6932 58.7415 36.2236 59.0686 35.8183C59.3957 35.4129 59.8043 35.0808 60.2679 34.8434C60.7315 34.6059 61.2398 34.4685 61.7599 34.44C64.8999 34.37 68.2399 38.93 69.1599 41.58C69.2299 41.78 69.8699 44.58 69.9999 45.34C70.7199 43.34 71.4299 41.34 71.9999 39.34C72.8456 36.6399 73.5137 33.8874 73.9999 31.1C73.7999 31.1 68.5099 30.6 66.4199 29.4C64.5999 28.4 62.5799 26.53 62.3099 24.33C62.2262 23.8159 62.252 23.29 62.3856 22.7866C62.5192 22.2832 62.7576 21.8136 63.0851 21.4087C63.4127 21.0037 63.822 20.6725 64.2864 20.4366C64.7508 20.2008 65.2597 20.0656 65.7799 20.04C68.9099 19.96 72.2499 24.52 73.1699 27.17C73.2299 27.34 73.7299 29.5 73.9399 30.54H74.1099C74.523 27.7233 74.6836 24.8753 74.5899 22.03C74.5899 20.46 74.4399 18.97 74.2899 17.52C73.2899 17.52 68.7499 17.52 66.7499 16.65C64.7499 15.78 62.6199 14.22 62.0999 12.07C61.9612 11.5664 61.9304 11.0391 62.0096 10.5228C62.0887 10.0064 62.276 9.51257 62.5592 9.0736C62.8425 8.63464 63.2152 8.26043 63.653 7.97547C64.0908 7.69052 64.5839 7.50123 65.0999 7.42001C68.2099 6.99001 72.0299 11.17 73.2399 13.69C73.2999 13.83 73.8199 15.3 74.1699 16.38C74.0999 15.72 74.0299 15.04 73.9399 14.38C73.6299 12.03 73.1899 9.90001 72.7899 8.01001C72.5499 6.94001 72.3199 6.01001 72.0899 5.08001C71.0899 4.58001 67.1699 2.52001 65.8299 0.86001C64.4899 -0.79999 63.2899 -3.20999 63.8299 -5.34999C63.9494 -5.85535 64.1737 -6.32999 64.4882 -6.7432C64.8028 -7.15641 65.2005 -7.499 65.6558 -7.74878C66.1111 -7.99857 66.6137 -8.15 67.1312 -8.19327C67.6487 -8.23655 68.1695 -8.1707 68.6599 -7.99999Z" fill="white"/>
<path d="M125.34 40.29C122.89 40.19 117.99 37.68 117.99 37.68C117.99 37.68 120.62 34.95 120.81 34.8C123 33.06 128.26 30.97 130.87 32.71C131.297 33.0089 131.655 33.3945 131.923 33.8416C132.19 34.2887 132.36 34.7872 132.421 35.3045C132.483 35.8218 132.434 36.3463 132.279 36.8435C132.123 37.3407 131.865 37.7996 131.52 38.19C130.12 39.9 127.43 40.38 125.34 40.29Z" fill="white"/>
</g>
<path d="M96.73 101.65C96.73 101.65 81.86 65.81 73.54 67.37C65.22 68.93 87.81 124.51 87.81 124.51C87.81 124.51 61.65 75.16 43.81 75.16C25.97 75.16 50.35 129.7 73 147.88C73 147.88 37.32 109.44 16.51 117.75C-4.30004 126.06 58.08 165 58.08 165C58.08 165 21.81 153.59 26 162.43C30.19 171.27 41.46 172.81 41.46 172.81L51 174.89H103L111 171.78C111 171.78 144.3 155.15 135.38 148.4C126.46 141.65 106.84 156.19 106.84 156.19C106.84 156.19 140.73 118.79 134.19 104.77C127.65 90.75 98.51 130.22 98.51 130.22C98.51 130.22 122.3 79.83 117.51 71C112.72 62.17 96.73 101.65 96.73 101.65Z" fill="#534CFF"/>
<path opacity="0.4" d="M96.73 101.65C96.73 101.65 81.86 65.81 73.54 67.37C65.22 68.93 87.81 124.51 87.81 124.51C87.81 124.51 61.65 75.16 43.81 75.16C25.97 75.16 50.35 129.7 73 147.88C73 147.88 37.32 109.44 16.51 117.75C-4.30004 126.06 58.08 165 58.08 165C58.08 165 21.81 153.59 26 162.43C30.19 171.27 41.46 172.81 41.46 172.81L57 174.89H99L111 171.78C111 171.78 144.3 155.15 135.38 148.4C126.46 141.65 106.84 156.19 106.84 156.19C106.84 156.19 140.73 118.79 134.19 104.77C127.65 90.75 98.51 130.22 98.51 130.22C98.51 130.22 122.3 79.83 117.51 71C112.72 62.17 96.73 101.65 96.73 101.65Z" fill="white"/>
<path d="M101.49 103.54C88.4099 142.19 88.4099 169.54 88.4099 169.54C88.4099 169.54 103.87 170.14 119.92 158.24" stroke="#454461" stroke-linecap="round" stroke-linejoin="round"/>
<path d="M94.9999 124.35C92.301 112.796 88.7205 101.466 84.2899 90.46" stroke="#454461" stroke-linecap="round" stroke-linejoin="round"/>
<path d="M56.2999 101.75L89.5899 151.11C89.5899 151.11 112.19 132.11 119.92 121.38" stroke="#454461" stroke-linecap="round" stroke-linejoin="round"/>
<path d="M89 163C89 163 53.92 146.35 39.65 136.84" stroke="#454461" stroke-linecap="round" stroke-linejoin="round"/>
<path d="M194.61 21.63H187.38V322.92H194.61V21.63Z" fill="#C2C2C2" stroke="#ABABAB" stroke-linecap="round" stroke-linejoin="round"/>
<path d="M64.5499 21.63H57.3199V322.92H64.5499V21.63Z" fill="#C2C2C2" stroke="#ABABAB" stroke-linecap="round" stroke-linejoin="round"/>
<path d="M129.58 21.63H122.35V322.92H129.58V21.63Z" fill="#C2C2C2" stroke="#ABABAB" stroke-linecap="round" stroke-linejoin="round"/>
<path d="M259.63 21.63H252.4V322.92H259.63V21.63Z" fill="#C2C2C2" stroke="#ABABAB" stroke-linecap="round" stroke-linejoin="round"/>
<path d="M257.46 31.02H54.99V44.75H257.46V31.02Z" fill="#C2C2C2" stroke="#ABABAB" stroke-linecap="round" stroke-linejoin="round"/>
<path d="M257.46 31.02H127.16V44.75H257.46V31.02Z" fill="#A6A6A6" stroke="#ABABAB" stroke-linecap="round" stroke-linejoin="round"/>
<path d="M257.46 169.27H54.99V183H257.46V169.27Z" fill="#C2C2C2" stroke="#ABABAB" stroke-linecap="round" stroke-linejoin="round"/>
<path d="M257.46 169.27H127.16V183H257.46V169.27Z" fill="#A6A6A6" stroke="#ABABAB" stroke-linecap="round" stroke-linejoin="round"/>
<path d="M257.46 307.51H54.99V321.24H257.46V307.51Z" fill="#C2C2C2" stroke="#ABABAB" stroke-linecap="round" stroke-linejoin="round"/>
<path d="M257.46 307.51H127.16V321.24H257.46V307.51Z" fill="#A6A6A6" stroke="#ABABAB" stroke-linecap="round" stroke-linejoin="round"/>
<path d="M127.19 233.8H21.23V322.81H127.19V233.8Z" fill="#534CFF"/>
<mask id="mask0_140_558" style="mask-type:luminance" maskUnits="userSpaceOnUse" x="21" y="233" width="107" height="90">
<path d="M127.19 233.8H21.23V322.81H127.19V233.8Z" fill="white"/>
</mask>
<g mask="url(#mask0_140_558)">
<path opacity="0.6" d="M127.19 233.8H21.23V322.81H127.19V233.8Z" fill="white" stroke="#696969" stroke-linecap="round" stroke-linejoin="round"/>
</g>
<path d="M127.19 233.8H21.23V322.81H127.19V233.8Z" stroke="#696969" stroke-linecap="round" stroke-linejoin="round"/>
<path d="M127.19 233.8H91.98V322.81H127.19V233.8Z" fill="#534CFF"/>
<mask id="mask1_140_558" style="mask-type:luminance" maskUnits="userSpaceOnUse" x="91" y="233" width="37" height="90">
<path d="M127.19 233.8H91.98V322.81H127.19V233.8Z" fill="white"/>
</mask>
<g mask="url(#mask1_140_558)">
<path opacity="0.39" d="M127.19 233.8H91.98V322.81H127.19V233.8Z" fill="white" stroke="#696969" stroke-linecap="round" stroke-linejoin="round"/>
</g>
<path d="M127.19 233.8H91.98V322.81H127.19V233.8Z" stroke="#696969" stroke-linecap="round" stroke-linejoin="round"/>
<path d="M109.95 234.04V322.92" stroke="#696969" stroke-linecap="round" stroke-linejoin="round"/>
<path d="M132.54 144.93H26.58V233.94H132.54V144.93Z" fill="#534CFF"/>
<mask id="mask2_140_558" style="mask-type:luminance" maskUnits="userSpaceOnUse" x="26" y="144" width="107" height="90">
<path d="M132.54 144.93H26.58V233.94H132.54V144.93Z" fill="white"/>
</mask>
<g mask="url(#mask2_140_558)">
<path opacity="0.6" d="M132.54 144.93H26.58V233.94H132.54V144.93Z" fill="white" stroke="#696969" stroke-linecap="round" stroke-linejoin="round"/>
</g>
<path d="M132.54 144.93H26.58V233.94H132.54V144.93Z" stroke="#696969" stroke-linecap="round" stroke-linejoin="round"/>
<path d="M132.54 144.93H97.33V233.94H132.54V144.93Z" fill="#534CFF"/>
<mask id="mask3_140_558" style="mask-type:luminance" maskUnits="userSpaceOnUse" x="97" y="144" width="36" height="90">
<path d="M132.54 144.93H97.33V233.94H132.54V144.93Z" fill="white"/>
</mask>
<g mask="url(#mask3_140_558)">
<path opacity="0.39" d="M132.54 144.93H97.33V233.94H132.54V144.93Z" fill="white" stroke="#696969" stroke-linecap="round" stroke-linejoin="round"/>
</g>
<path d="M132.54 144.93H97.33V233.94H132.54V144.93Z" stroke="#696969" stroke-linecap="round" stroke-linejoin="round"/>
<path d="M115.3 145.17V234.05" stroke="#696969" stroke-linecap="round" stroke-linejoin="round"/>
<path d="M408.28 233.8H302.32V322.81H408.28V233.8Z" fill="#534CFF"/>
<mask id="mask4_140_558" style="mask-type:luminance" maskUnits="userSpaceOnUse" x="302" y="233" width="107" height="90">
<path d="M408.28 233.8H302.32V322.81H408.28V233.8Z" fill="white"/>
</mask>
<g mask="url(#mask4_140_558)">
<path opacity="0.6" d="M408.28 233.8H302.32V322.81H408.28V233.8Z" fill="white" stroke="#919191" stroke-linecap="round" stroke-linejoin="round"/>
</g>
<path d="M408.28 233.8H302.32V322.81H408.28V233.8Z" stroke="#919191" stroke-linecap="round" stroke-linejoin="round"/>
<path d="M408.28 233.8H373.07V322.81H408.28V233.8Z" fill="#534CFF"/>
<mask id="mask5_140_558" style="mask-type:luminance" maskUnits="userSpaceOnUse" x="373" y="233" width="36" height="90">
<path d="M408.28 233.8H373.07V322.81H408.28V233.8Z" fill="white"/>
</mask>
<g mask="url(#mask5_140_558)">
<path opacity="0.39" d="M408.28 233.8H373.07V322.81H408.28V233.8Z" fill="white" stroke="#919191" stroke-linecap="round" stroke-linejoin="round"/>
</g>
<path d="M408.28 233.8H373.07V322.81H408.28V233.8Z" stroke="#919191" stroke-linecap="round" stroke-linejoin="round"/>
<path d="M391.04 234.04V322.92" stroke="#919191" stroke-linecap="round" stroke-linejoin="round"/>
<path d="M408.28 144.7H302.32V233.71H408.28V144.7Z" fill="#534CFF"/>
<mask id="mask6_140_558" style="mask-type:luminance" maskUnits="userSpaceOnUse" x="302" y="144" width="107" height="90">
<path d="M408.28 144.7H302.32V233.71H408.28V144.7Z" fill="white"/>
</mask>
<g mask="url(#mask6_140_558)">
<path opacity="0.6" d="M408.28 144.7H302.32V233.71H408.28V144.7Z" fill="white" stroke="#919191" stroke-linecap="round" stroke-linejoin="round"/>
</g>
<path d="M408.28 144.7H302.32V233.71H408.28V144.7Z" stroke="#919191" stroke-linecap="round" stroke-linejoin="round"/>
<path d="M408.28 144.7H373.07V233.71H408.28V144.7Z" fill="#534CFF"/>
<mask id="mask7_140_558" style="mask-type:luminance" maskUnits="userSpaceOnUse" x="373" y="144" width="36" height="90">
<path d="M408.28 144.7H373.07V233.71H408.28V144.7Z" fill="white"/>
</mask>
<g mask="url(#mask7_140_558)">
<path opacity="0.39" d="M408.28 144.7H373.07V233.71H408.28V144.7Z" fill="white" stroke="#919191" stroke-linecap="round" stroke-linejoin="round"/>
</g>
<path d="M408.28 144.7H373.07V233.71H408.28V144.7Z" stroke="#919191" stroke-linecap="round" stroke-linejoin="round"/>
<path d="M391.04 144.94V233.82" stroke="#919191" stroke-linecap="round" stroke-linejoin="round"/>
<path d="M398.97 71H311.32V144.63H398.97V71Z" fill="#534CFF"/>
<mask id="mask8_140_558" style="mask-type:luminance" maskUnits="userSpaceOnUse" x="311" y="71" width="88" height="74">
<path d="M398.97 71H311.32V144.63H398.97V71Z" fill="white"/>
</mask>
<g mask="url(#mask8_140_558)">
<path opacity="0.6" d="M398.97 71H311.32V144.63H398.97V71Z" fill="white" stroke="#919191" stroke-linecap="round" stroke-linejoin="round"/>
</g>
<path d="M398.97 71H311.32V144.63H398.97V71Z" stroke="#919191" stroke-linecap="round" stroke-linejoin="round"/>
<path d="M398.97 71H369.85V144.63H398.97V71Z" fill="#534CFF"/>
<mask id="mask9_140_558" style="mask-type:luminance" maskUnits="userSpaceOnUse" x="369" y="71" width="30" height="74">
<path d="M398.97 71H369.85V144.63H398.97V71Z" fill="white"/>
</mask>
<g mask="url(#mask9_140_558)">
<path opacity="0.39" d="M398.97 71H369.85V144.63H398.97V71Z" fill="white" stroke="#919191" stroke-linecap="round" stroke-linejoin="round"/>
</g>
<path d="M398.97 71H369.85V144.63H398.97V71Z" stroke="#919191" stroke-linecap="round" stroke-linejoin="round"/>
<path d="M384.71 71.2V144.72" stroke="#919191" stroke-linecap="round" stroke-linejoin="round"/>
<path d="M387.76 289.35H374.03V297.94H387.76V289.35Z" fill="white" stroke="#454461" stroke-linecap="round" stroke-linejoin="round"/>
<path d="M258.56 322.92C263.144 322.92 266.86 319.204 266.86 314.62C266.86 310.036 263.144 306.32 258.56 306.32C253.976 306.32 250.26 310.036 250.26 314.62C250.26 319.204 253.976 322.92 258.56 322.92Z" fill="#454461" stroke="#454461" stroke-linecap="round" stroke-linejoin="round"/>
<path d="M395.14 177.24H390.24V314.81H395.14V177.24Z" fill="#454461" stroke="#454461" stroke-linecap="round" stroke-linejoin="round"/>
<path d="M392.53 225.36L380.94 216.14C376.01 212.212 372.313 206.95 370.286 200.982C368.26 195.013 367.991 188.588 369.51 182.47C369.957 180.684 370.986 179.099 372.435 177.963C373.884 176.828 375.669 176.207 377.51 176.2H407.51C409.352 176.204 411.139 176.823 412.589 177.959C414.038 179.095 415.066 180.683 415.51 182.47C417.032 188.587 416.765 195.011 414.74 200.98C412.715 206.949 409.019 212.211 404.09 216.14L392.53 225.36ZM377.53 180.89C376.729 180.887 375.95 181.154 375.319 181.647C374.688 182.141 374.241 182.832 374.05 183.61C372.743 188.853 372.972 194.361 374.707 199.478C376.443 204.594 379.613 209.104 383.84 212.47L392.51 219.37L401.19 212.47C405.419 209.105 408.591 204.596 410.33 199.48C412.07 194.363 412.302 188.855 411 183.61C410.808 182.833 410.36 182.142 409.73 181.649C409.099 181.156 408.321 180.889 407.52 180.89H377.53Z" fill="#454461"/>
<path d="M363.76 293.65H212.03V311.31H363.76V293.65Z" fill="white"/>
<mask id="mask10_140_558" style="mask-type:luminance" maskUnits="userSpaceOnUse" x="212" y="293" width="152" height="19">
<path d="M363.76 293.65H212.03V311.31H363.76V293.65Z" fill="white"/>
</mask>
<g mask="url(#mask10_140_558)">
<path opacity="0.28" d="M363.76 293.65H212.03V311.31H363.76V293.65Z" fill="#1A1A33" stroke="#454461" stroke-linecap="round" stroke-linejoin="round"/>
</g>
<path d="M363.76 293.65H212.03V311.31H363.76V293.65Z" stroke="#454461" stroke-linecap="round" stroke-linejoin="round"/>
<path d="M229.03 293.65H212.03V311.31H229.03V293.65Z" stroke="#454461" stroke-linecap="round" stroke-linejoin="round"/>
<path d="M363.75 293.65H346.75V311.31H363.75V293.65Z" stroke="#454461" stroke-linecap="round" stroke-linejoin="round"/>
<path d="M296.39 293.65H279.39V311.31H296.39V293.65Z" stroke="#454461" stroke-linecap="round" stroke-linejoin="round"/>
<path d="M363.76 311.31H374.22L387.3 261.6H376.84L363.76 311.31Z" fill="white" stroke="#454461" stroke-linecap="round" stroke-linejoin="round"/>
<path d="M399.56 282.53H385.83V304.77H399.56V282.53Z" fill="white" stroke="#454461" stroke-linecap="round" stroke-linejoin="round"/>
<path d="M389.33 322.92C388.552 322.907 387.809 322.592 387.258 322.042C386.708 321.491 386.393 320.748 386.38 319.97V308.9C386.393 308.122 386.708 307.379 387.258 306.828C387.809 306.278 388.552 305.963 389.33 305.95C390.108 305.963 390.851 306.278 391.402 306.828C391.952 307.379 392.267 308.122 392.28 308.9V320C392.259 320.773 391.941 321.508 391.392 322.053C390.842 322.597 390.103 322.907 389.33 322.92Z" fill="#454461"/>
<path d="M396.34 322.92C395.562 322.907 394.819 322.592 394.268 322.042C393.718 321.491 393.403 320.748 393.39 319.97V308.9C393.403 308.122 393.718 307.379 394.268 306.828C394.819 306.278 395.562 305.963 396.34 305.95C397.127 305.95 397.883 306.259 398.444 306.811C399.005 307.363 399.327 308.113 399.34 308.9V320C399.319 320.782 398.994 321.524 398.434 322.07C397.873 322.615 397.122 322.92 396.34 322.92Z" fill="#454461"/>
<path d="M7.81995 322.92H421.63" stroke="#454461" stroke-linecap="round" stroke-linejoin="round"/>
<path d="M150.59 351.81C190.487 351.81 222.83 347.879 222.83 343.03C222.83 338.181 190.487 334.25 150.59 334.25C110.693 334.25 78.35 338.181 78.35 343.03C78.35 347.879 110.693 351.81 150.59 351.81Z" fill="#534CFF"/>
<path opacity="0.5" d="M150.59 351.81C190.487 351.81 222.83 347.879 222.83 343.03C222.83 338.181 190.487 334.25 150.59 334.25C110.693 334.25 78.35 338.181 78.35 343.03C78.35 347.879 110.693 351.81 150.59 351.81Z" fill="white"/>
<path d="M300.08 343C300.08 345.42 283.95 347.38 264.08 347.38C244.21 347.38 228.08 345.38 228.08 343C228.08 340.62 244.2 338.63 264.08 338.63C283.96 338.63 300.08 340.62 300.08 343Z" fill="#534CFF"/>
<path opacity="0.5" d="M300.08 343C300.08 345.42 283.95 347.38 264.08 347.38C244.21 347.38 228.08 345.38 228.08 343C228.08 340.62 244.2 338.63 264.08 338.63C283.96 338.63 300.08 340.62 300.08 343Z" fill="white"/>
<path d="M165 53.79C165 53.79 159.41 49.4 153 51.59C146.59 53.78 141.73 64.46 140 73.14C138.27 81.82 131.62 88.4 133.22 98.58C134.82 108.76 146.39 110.35 160.36 111.85C174.33 113.35 181.91 111.65 188.49 102.47C195.07 93.29 192.28 82.12 188.39 72.24C184.5 62.36 178.02 53.19 172.63 51.49C167.24 49.79 165 53.79 165 53.79Z" fill="#454461" stroke="#454461" stroke-linecap="round" stroke-linejoin="round"/>
<path d="M141.9 106C142.843 106.424 143.824 106.759 144.83 107" stroke="white" stroke-linecap="round" stroke-linejoin="round"/>
<path d="M163.6 60.9C161.322 65.9904 158.434 70.7855 155 75.18C149.28 82.53 136.63 89.47 135.82 97.18C135.69 98.2123 135.78 99.2604 136.085 100.255C136.391 101.25 136.903 102.168 137.59 102.95" stroke="white" stroke-linecap="round" stroke-linejoin="round"/>
<path d="M186.81 97.77C186.397 98.7379 185.866 99.6514 185.23 100.49" stroke="white" stroke-linecap="round" stroke-linejoin="round"/>
<path d="M182 78.45C182 78.45 188.43 85.87 187.81 93.79" stroke="white" stroke-linecap="round" stroke-linejoin="round"/>
<path d="M162.38 56.81C159.874 56.5549 157.343 56.9039 155 57.8278C152.656 58.7516 150.568 60.2234 148.91 62.12C148.68 62.38 148.47 62.64 148.27 62.9" stroke="white" stroke-linecap="round" stroke-linejoin="round"/>
<path d="M125.49 245.3L124.24 264.54C124.24 264.54 118.92 290.35 117.24 300.99C115.56 311.63 112.48 327.81 111.92 327.81C111.36 327.81 102.18 333.36 99.24 337.89C96.3 342.42 100.03 344.34 104.11 342.89C108.19 341.44 113.73 337.34 115.54 332.47C117.35 327.6 118.25 325.79 118.37 325C118.49 324.21 137.84 272.26 139.76 266.71C141.68 261.16 145.76 244.86 145.76 244.86L155.27 212.6C155.27 212.6 165.45 245.77 165.57 247.24C165.69 248.71 176.09 333.49 176.57 336.66C177.05 339.83 176.91 342.09 178.83 342.77C180.75 343.45 185.28 343.45 187.66 343.45C190.04 343.45 198.3 344.7 202.37 343.68C206.44 342.66 206.9 341.98 204.07 339.94C201.24 337.9 185.52 336.6 184.07 330.66C183.95 330.21 183.84 242.94 183.84 242.94C183.84 242.94 182.48 214.08 180.22 205.94H127.92L125.49 245.3Z" fill="white" stroke="#454461" stroke-linecap="round" stroke-linejoin="round"/>
<path d="M104.1 342.87C108.17 341.39 113.72 337.32 115.53 332.45L115.91 331.45C113.6 333.91 109.91 337.33 109.91 337.33C109.684 336.17 109.179 335.082 108.44 334.16C108.117 333.804 107.704 333.543 107.244 333.403C106.785 333.264 106.296 333.253 105.83 333.37L109.83 328.97C106.83 330.83 101.43 334.63 99.3099 337.9C96.2799 342.41 99.9999 344.34 104.1 342.87Z" fill="#454461" stroke="#454461" stroke-linecap="round" stroke-linejoin="round"/>
<path d="M204 339.92C202.06 338.53 194.09 337.48 188.77 335.05C188.55 335.237 188.379 335.473 188.27 335.74C187.932 336.699 187.668 337.681 187.48 338.68L176.48 336.33V336.64C176.93 339.81 176.82 342.07 178.74 342.75C180.66 343.43 185.19 343.43 187.57 343.43C189.95 343.43 198.21 344.68 202.28 343.66C206.35 342.64 206.87 342 204 339.92Z" fill="#454461" stroke="#454461" stroke-linecap="round" stroke-linejoin="round"/>
<path d="M140.73 159C140.73 159 135.54 161.39 129.26 172.67C122.39 184.98 123.57 191.82 123.47 206.67C123.37 221.52 123.07 246.17 123.07 246.17C123.07 246.17 142.07 251.26 155.7 250.46C169.33 249.66 186.62 246.57 186.62 246.57C186.62 246.57 182.93 196.29 179.44 181.83C175.95 167.37 173.85 160.83 173.85 160.83C167.105 161.766 160.27 161.867 153.5 161.13C141.93 160 140.73 159 140.73 159Z" fill="#454461" stroke="#454461" stroke-linecap="round" stroke-linejoin="round"/>
<path d="M162.59 203.47C163.11 205.18 163.59 206.91 164.01 208.64" stroke="white" stroke-linecap="round" stroke-linejoin="round"/>
<path d="M150.54 175.17C154.568 182.603 158.025 190.332 160.88 198.29" stroke="white" stroke-linecap="round" stroke-linejoin="round"/>
<path d="M268.12 149.44C267.52 149.04 257.69 147.5 257.69 147.5L255.77 146.71C255.77 146.71 267.67 147.66 267.77 147.16C267.87 146.66 268.27 146.06 267.47 145.96C266.67 145.86 251.36 142.75 251.36 142.75C251.36 142.75 255.25 139.07 255.75 138.27C256.25 137.47 256.94 135.87 256.14 135.87C255.34 135.87 255.14 136.37 254.05 137.07C252.96 137.77 248.66 139.47 247.46 140.46C246.26 141.45 242.68 144.05 242.68 144.05L201.1 138.33C201.1 138.33 186.5 120.33 183.33 116.49C181.126 113.927 178.618 111.644 175.86 109.69C172.8 108.34 172.86 110.6 172.86 110.6L179.25 139C179.25 139 195.78 148.85 196.8 148.85C197.82 148.85 242.48 150.33 242.48 150.33C242.48 150.33 245.48 151.73 247.36 152.92C249.24 154.11 261.23 157.92 261.23 157.92C261.23 157.92 262.03 157.52 261.13 156.82C260.23 156.12 254.45 153.33 254.45 153.33L266.45 155.93C266.45 155.93 267.15 155.43 266.85 154.93C266.55 154.43 255.85 150.34 255.85 150.34L267.85 150.94C267.85 150.94 268.71 149.84 268.12 149.44Z" fill="white" stroke="#454461" stroke-linecap="round" stroke-linejoin="round"/>
<path d="M198.59 135.24C194.28 129.93 185.67 119.33 183.33 116.49C181.126 113.927 178.618 111.644 175.86 109.69C172.8 108.34 172.86 110.6 172.86 110.6L179.25 139C179.25 139 186.71 143.44 191.91 146.36L198.59 135.24Z" fill="white" stroke="#454461" stroke-linecap="round" stroke-linejoin="round"/>
<path d="M154.4 107.26C154.4 107.26 145.72 107.66 140.4 113.55C135.08 119.44 135.71 132.4 137.91 140.18C140.11 147.96 142.91 152.25 142.3 154.95C141.69 157.65 139.51 158.54 140.7 161.03C141.89 163.52 148.78 166.22 160.95 165.82C173.12 165.42 175.42 162.82 175.52 160.54C175.62 158.26 174.72 156.35 175.02 154.95C175.32 153.55 184.1 145.77 184.1 137.19C184.1 128.61 180.31 125.62 179.41 119.43C178.51 113.24 178.81 112.35 175.12 109.65C171.43 106.95 159.29 105.56 154.4 107.26Z" fill="white" stroke="#454461" stroke-linecap="round" stroke-linejoin="round"/>
<path d="M150.46 137C147.559 139.428 144.339 141.446 140.89 143" stroke="#454461" stroke-linecap="round" stroke-linejoin="round"/>
<path d="M151.42 138C151.42 138 149.27 144.94 144 148.77" stroke="#454461" stroke-linecap="round" stroke-linejoin="round"/>
<path d="M172.96 113.54L173.96 123.12L169.76 118.23L172.96 113.54Z" fill="white" stroke="#454461" stroke-linecap="round" stroke-linejoin="round"/>
<path d="M167.37 123.92L172.96 113.54L167.87 108.06L167.37 123.92Z" fill="white" stroke="#454461" stroke-linecap="round" stroke-linejoin="round"/>
<path d="M156.6 90.3C157.472 93.7587 157.905 97.3132 157.89 100.88C157.861 103.19 157.627 105.492 157.19 107.76L167.37 123.92L170.26 108.92L172.16 98.54C172.16 98.54 160.59 97.88 156.6 90.3Z" fill="white" stroke="#454461" stroke-linecap="round" stroke-linejoin="round"/>
<path d="M166.77 115.24L167.37 123.92L164.38 119.23L166.77 115.24Z" fill="white" stroke="#454461" stroke-linecap="round" stroke-linejoin="round"/>
<path d="M153.8 107.36L163.08 124.02L166.77 115.24L156.9 101.67L153.8 107.36Z" fill="white" stroke="#454461" stroke-linecap="round" stroke-linejoin="round"/>
<path d="M316.38 115.13H232.17V184.23H316.38V115.13Z" fill="#534CFF"/>
<mask id="mask11_140_558" style="mask-type:luminance" maskUnits="userSpaceOnUse" x="232" y="115" width="85" height="70">
<path d="M316.38 115.13H232.17V184.23H316.38V115.13Z" fill="white"/>
</mask>
<g mask="url(#mask11_140_558)">
<path opacity="0.2" d="M316.38 115.13H232.17V184.23H316.38V115.13Z" fill="#1A1A33"/>
</g>
<path d="M316.38 115.13H232.17V184.23H316.38V115.13Z" stroke="#454461" stroke-linecap="round" stroke-linejoin="round"/>
<path d="M298.55 115.13H214.34V184.23H298.55V115.13Z" fill="#534CFF" stroke="#454461" stroke-linecap="round" stroke-linejoin="round"/>
<path d="M330.25 207.49C327.55 203.21 316.38 184.23 316.38 184.23H298.56L307.73 207.49H330.25Z" fill="#534CFF"/>
<mask id="mask12_140_558" style="mask-type:luminance" maskUnits="userSpaceOnUse" x="298" y="184" width="33" height="24">
<path d="M330.25 207.49C327.55 203.21 316.38 184.23 316.38 184.23H298.56L307.73 207.49H330.25Z" fill="white"/>
</mask>
<g mask="url(#mask12_140_558)">
<path opacity="0.2" d="M330.25 207.49C327.55 203.21 316.38 184.23 316.38 184.23H298.56L307.73 207.49H330.25Z" fill="#1A1A33"/>
</g>
<path d="M330.25 207.49C327.55 203.21 316.38 184.23 316.38 184.23H298.56L307.73 207.49H330.25Z" stroke="#454461" stroke-linecap="round" stroke-linejoin="round"/>
<path d="M200.42 207.49C203.12 203.21 214.28 184.23 214.28 184.23H232.11L222.94 207.49H200.42Z" fill="#534CFF" stroke="#454461" stroke-linecap="round" stroke-linejoin="round"/>
<path d="M214.28 184.23L206.53 207.49H294.48L298.56 184.23H214.28Z" fill="#534CFF" stroke="#454461" stroke-linecap="round" stroke-linejoin="round"/>
<path d="M327.22 140.13V163.27" stroke="#454461" stroke-linecap="round" stroke-linejoin="round"/>
<path d="M331.6 150.14V168.9" stroke="#454461" stroke-linecap="round" stroke-linejoin="round"/>
<path d="M205.29 163.27V177.65" stroke="#454461" stroke-linecap="round" stroke-linejoin="round"/>
<path d="M201.54 171.4V182.65" stroke="#454461" stroke-linecap="round" stroke-linejoin="round"/>
<path d="M139.93 132.1C142.914 135.48 146.378 138.404 150.21 140.78C156.21 144.37 178.21 156.84 179.94 157.54C181.67 158.24 234.21 149.66 234.21 149.66C234.21 149.66 237.21 151.06 239.1 152.25C240.99 153.44 252.97 157.25 252.97 157.25C252.97 157.25 253.77 156.85 252.87 156.16C251.97 155.47 246.19 152.66 246.19 152.66L258.19 155.26C258.19 155.26 258.89 154.76 258.59 154.26C258.29 153.76 247.59 149.67 247.59 149.67L259.59 150.27C259.59 150.27 260.49 149.17 259.89 148.77C259.29 148.37 247 145.57 247 145.57C247 145.57 260.07 144.47 260.17 143.97C260.27 143.47 260.67 142.88 259.87 142.78C259.07 142.68 242.71 141.08 242.71 141.08C242.71 141.08 247 138.39 247.5 137.59C248 136.79 248.7 135.19 247.9 135.19C247.1 135.19 246.9 135.69 245.81 136.39C244.72 137.09 240.42 138.79 239.22 139.78C238.02 140.77 234.43 143.38 234.43 143.38L186.35 143.48L156.5 119.93" fill="white"/>
<path d="M139.93 132.1C142.914 135.48 146.378 138.404 150.21 140.78C156.21 144.37 178.21 156.84 179.94 157.54C181.67 158.24 234.21 149.66 234.21 149.66C234.21 149.66 237.21 151.06 239.1 152.25C240.99 153.44 252.97 157.25 252.97 157.25C252.97 157.25 253.77 156.85 252.87 156.16C251.97 155.47 246.19 152.66 246.19 152.66L258.19 155.26C258.19 155.26 258.89 154.76 258.59 154.26C258.29 153.76 247.59 149.67 247.59 149.67L259.59 150.27C259.59 150.27 260.49 149.17 259.89 148.77C259.29 148.37 247 145.57 247 145.57C247 145.57 260.07 144.47 260.17 143.97C260.27 143.47 260.67 142.88 259.87 142.78C259.07 142.68 242.71 141.08 242.71 141.08C242.71 141.08 247 138.39 247.5 137.59C248 136.79 248.7 135.19 247.9 135.19C247.1 135.19 246.9 135.69 245.81 136.39C244.72 137.09 240.42 138.79 239.22 139.78C238.02 140.77 234.43 143.38 234.43 143.38L186.35 143.48L156.5 119.93" stroke="#454461" stroke-linecap="round" stroke-linejoin="round"/>
<path d="M259.85 142.78C259.06 142.68 242.69 141.08 242.69 141.08C242.69 141.08 246.98 138.39 247.48 137.59C247.98 136.79 248.68 135.19 247.88 135.19C247.08 135.19 246.88 135.69 245.79 136.39C244.7 137.09 240.4 138.79 239.2 139.78C238 140.77 234.41 143.38 234.41 143.38L186.33 143.48L181 139.25C179 142.76 175.26 149.34 172.83 153.68C176.57 155.76 179.4 157.31 179.97 157.54C181.67 158.24 234.24 149.66 234.24 149.66C234.24 149.66 237.24 151.06 239.13 152.25C241.02 153.44 253 157.25 253 157.25C253 157.25 253.8 156.85 252.9 156.16C252 155.47 246.22 152.66 246.22 152.66L258.22 155.26C258.22 155.26 258.92 154.76 258.62 154.26C258.32 153.76 247.62 149.67 247.62 149.67L259.62 150.27C259.62 150.27 260.52 149.17 259.92 148.77C259.32 148.37 247 145.57 247 145.57C247 145.57 260.07 144.47 260.17 143.97C260.27 143.47 260.65 142.88 259.85 142.78Z" fill="white" stroke="#454461" stroke-linecap="round" stroke-linejoin="round"/>
<path d="M179.34 81.92C179.51 81.7131 179.736 81.5582 179.99 81.4731C180.244 81.388 180.517 81.376 180.778 81.4386C181.038 81.5012 181.276 81.6357 181.464 81.8269C181.652 82.0181 181.782 82.2583 181.84 82.52C182.007 83.6048 181.951 84.7122 181.676 85.7747C181.401 86.8372 180.912 87.8325 180.24 88.7C179.14 89.8 178.14 90.1 178.14 88.7C178.418 86.42 178.818 84.1567 179.34 81.92Z" fill="white" stroke="#454461" stroke-linecap="round" stroke-linejoin="round"/>
<path d="M167.06 64.44C166.709 69.3066 164.627 73.8867 161.19 77.35C157.988 80.4986 154.367 83.1906 150.43 85.35C150.43 85.35 151.01 88.48 152.19 89.46C153.37 90.44 155.71 90.25 155.71 90.25C157.07 93.9695 159.283 97.3189 162.17 100.03C166.86 104.33 172.34 103.94 175.47 97.49C178.6 91.04 180.17 84.57 179.78 80.85L179.39 77.13C179.39 77.13 169.21 71.48 167.06 64.44Z" fill="white" stroke="#454461" stroke-linecap="round" stroke-linejoin="round"/>
<path d="M166.47 83.78C166.967 83.78 167.37 83.0637 167.37 82.18C167.37 81.2964 166.967 80.58 166.47 80.58C165.973 80.58 165.57 81.2964 165.57 82.18C165.57 83.0637 165.973 83.78 166.47 83.78Z" fill="#454461"/>
<path d="M171.36 96.55C171.857 96.55 172.26 95.8337 172.26 94.95C172.26 94.0664 171.857 93.35 171.36 93.35C170.863 93.35 170.46 94.0664 170.46 94.95C170.46 95.8337 170.863 96.55 171.36 96.55Z" fill="#454461"/>
<path d="M175.15 83.78C175.647 83.78 176.05 83.0637 176.05 82.18C176.05 81.2964 175.647 80.58 175.15 80.58C174.653 80.58 174.25 81.2964 174.25 82.18C174.25 83.0637 174.653 83.78 175.15 83.78Z" fill="#454461"/>
<path d="M173.35 80.48C173.006 81.6779 172.904 82.9323 173.05 84.17C173.35 85.87 174.75 88.76 173.55 89.26C173.002 89.5098 172.397 89.6046 171.799 89.534C171.201 89.4635 170.634 89.2304 170.16 88.86" stroke="#454461" stroke-linecap="round" stroke-linejoin="round"/>
<path d="M163.87 79.29C163.87 79.29 164.35 76.23 168.36 76.58" stroke="#454461" stroke-linecap="round" stroke-linejoin="round"/>
<path d="M174.61 77.52C174.61 77.52 178.35 74.52 179.56 80.01" stroke="#454461" stroke-linecap="round" stroke-linejoin="round"/>
</g>
<defs>
<clipPath id="clip0_140_558">
<rect width="422" height="352" fill="white"/>
</clipPath>
</defs>
</svg>
