<svg width="16" height="16" viewBox="0 0 16 16" fill="none" xmlns="http://www.w3.org/2000/svg">
<path d="M13.7778 3.55554H10.2222V4.44443H13.7778V13.7778H10.2222V14.6667H14.6667V4.44443C14.6667 4.20868 14.573 3.98259 14.4063 3.81589C14.2396 3.64919 14.0135 3.55554 13.7778 3.55554Z" fill="black"/>
<path d="M8.83555 1.33331H2.71999C2.4701 1.33331 2.23044 1.43258 2.05374 1.60928C1.87704 1.78598 1.77777 2.02564 1.77777 2.27554V14.6666H9.77777V2.27554C9.77777 2.02564 9.6785 1.78598 9.5018 1.60928C9.3251 1.43258 9.08544 1.33331 8.83555 1.33331ZM8.88888 13.7778H7.55555V12.4444H3.99999V13.7778H2.66666V2.27554C2.66666 2.26853 2.66804 2.2616 2.67072 2.25513C2.6734 2.24865 2.67733 2.24278 2.68228 2.23782C2.68723 2.23287 2.69311 2.22894 2.69958 2.22626C2.70605 2.22358 2.71299 2.2222 2.71999 2.2222H8.83555C8.84255 2.2222 8.84949 2.22358 8.85596 2.22626C8.86243 2.22894 8.86831 2.23287 8.87326 2.23782C8.87821 2.24278 8.88214 2.24865 8.88482 2.25513C8.8875 2.2616 8.88888 2.26853 8.88888 2.27554V13.7778Z" fill="black"/>
<path d="M3.55554 3.55554H4.44443V4.44443H3.55554V3.55554Z" fill="black"/>
<path d="M5.33331 3.55554H6.2222V4.44443H5.33331V3.55554Z" fill="black"/>
<path d="M7.11108 3.55554H7.99997V4.44443H7.11108V3.55554Z" fill="black"/>
<path d="M3.55554 5.77777H4.44443V6.66666H3.55554V5.77777Z" fill="black"/>
<path d="M5.33331 5.77777H6.2222V6.66666H5.33331V5.77777Z" fill="black"/>
<path d="M7.11108 5.77777H7.99997V6.66666H7.11108V5.77777Z" fill="black"/>
<path d="M3.55554 8H4.44443V8.88889H3.55554V8Z" fill="black"/>
<path d="M5.33331 8H6.2222V8.88889H5.33331V8Z" fill="black"/>
<path d="M7.11108 8H7.99997V8.88889H7.11108V8Z" fill="black"/>
<path d="M3.55554 10.2222H4.44443V11.1111H3.55554V10.2222Z" fill="black"/>
<path d="M5.33331 10.2222H6.2222V11.1111H5.33331V10.2222Z" fill="black"/>
<path d="M7.11108 10.2222H7.99997V11.1111H7.11108V10.2222Z" fill="black"/>
<path d="M10.2222 5.77777H11.1111V6.66666H10.2222V5.77777Z" fill="black"/>
<path d="M12 5.77777H12.8889V6.66666H12V5.77777Z" fill="black"/>
<path d="M10.2222 8H11.1111V8.88889H10.2222V8Z" fill="black"/>
<path d="M12 8H12.8889V8.88889H12V8Z" fill="black"/>
<path d="M10.2222 10.2222H11.1111V11.1111H10.2222V10.2222Z" fill="black"/>
<path d="M12 10.2222H12.8889V11.1111H12V10.2222Z" fill="black"/>
</svg>
