<svg width="16" height="16" viewBox="0 0 16 16" fill="none" xmlns="http://www.w3.org/2000/svg">
<path d="M13.7778 3.55554H9.77777V14.6667H14.6667V4.44443C14.6667 4.20868 14.573 3.98259 14.4063 3.81589C14.2396 3.64919 14.0135 3.55554 13.7778 3.55554ZM11.5555 11.1111H10.6667V10.2222H11.5555V11.1111ZM11.5555 8.88888H10.6667V7.99999H11.5555V8.88888ZM11.5555 6.66665H10.6667V5.77776H11.5555V6.66665ZM13.3333 11.1111H12.4444V10.2222H13.3333V11.1111ZM13.3333 8.88888H12.4444V7.99999H13.3333V8.88888ZM13.3333 6.66665H12.4444V5.77776H13.3333V6.66665Z" fill="black"/>
<path d="M7.94666 1.33331H2.71999C2.4701 1.33331 2.23044 1.43258 2.05374 1.60928C1.87704 1.78598 1.77777 2.02564 1.77777 2.27554V14.6666H3.99999V13.3333H6.66666V14.6666H8.88888V2.27554C8.88888 2.02564 8.78961 1.78598 8.61291 1.60928C8.43621 1.43258 8.19655 1.33331 7.94666 1.33331ZM3.99999 11.1111H3.1111V10.2222H3.99999V11.1111ZM3.99999 8.88887H3.1111V7.99998H3.99999V8.88887ZM3.99999 6.66665H3.1111V5.77776H3.99999V6.66665ZM3.99999 4.44442H3.1111V3.55554H3.99999V4.44442ZM5.77777 11.1111H4.88888V10.2222H5.77777V11.1111ZM5.77777 8.88887H4.88888V7.99998H5.77777V8.88887ZM5.77777 6.66665H4.88888V5.77776H5.77777V6.66665ZM5.77777 4.44442H4.88888V3.55554H5.77777V4.44442ZM7.55555 11.1111H6.66666V10.2222H7.55555V11.1111ZM7.55555 8.88887H6.66666V7.99998H7.55555V8.88887ZM7.55555 6.66665H6.66666V5.77776H7.55555V6.66665ZM7.55555 4.44442H6.66666V3.55554H7.55555V4.44442Z" fill="black"/>
</svg>
