<svg width="16" height="16" viewBox="0 0 16 16" fill="none" xmlns="http://www.w3.org/2000/svg">
<path d="M10.0109 2.88242L4.71313 8.00242L10.0109 13.1224C10.1553 13.2615 10.349 13.3375 10.5495 13.3338C10.75 13.33 10.9407 13.2468 11.0798 13.1024C11.2189 12.958 11.2949 12.7643 11.2912 12.5638C11.2874 12.3634 11.2042 12.1726 11.0598 12.0335L6.88647 8.00242L11.0598 3.96686C11.2042 3.82777 11.2874 3.63701 11.2912 3.43656C11.2949 3.2361 11.2189 3.04237 11.0798 2.89797C10.9407 2.75358 10.75 2.67035 10.5495 2.6666C10.349 2.66285 10.1553 2.73888 10.0109 2.87797L10.0109 2.88242Z" fill="black"/>
</svg>
