<svg width="16" height="16" viewBox="0 0 16 16" fill="none" xmlns="http://www.w3.org/2000/svg">
<path d="M5.99351 13.118L11.2913 7.99801L5.99351 2.87801C5.84912 2.73892 5.65538 2.66289 5.45493 2.66664C5.25447 2.67039 5.06372 2.75361 4.92462 2.89801C4.78553 3.04241 4.7095 3.23614 4.71325 3.4366C4.717 3.63705 4.80023 3.82781 4.94462 3.9669L9.11796 7.99801L4.94462 12.0336C4.80023 12.1727 4.717 12.3634 4.71325 12.5639C4.7095 12.7643 4.78553 12.9581 4.92462 13.1025C5.06372 13.2469 5.25447 13.3301 5.45493 13.3338C5.65538 13.3376 5.84912 13.2615 5.99351 13.1225L5.99351 13.118Z" fill="black"/>
</svg>
