<svg width="16" height="16" viewBox="0 0 16 16" fill="none" xmlns="http://www.w3.org/2000/svg">
<path d="M13.12 10.0089L7.99999 4.71112L2.87999 10.0089C2.7409 10.1533 2.66487 10.347 2.66862 10.5475C2.67237 10.7479 2.7556 10.9387 2.89999 11.0778C3.04439 11.2169 3.23813 11.2929 3.43858 11.2892C3.63904 11.2854 3.82979 11.2022 3.96888 11.0578L7.99999 6.88445L12.0355 11.0578C12.1746 11.2022 12.3654 11.2854 12.5659 11.2892C12.7663 11.2929 12.96 11.2169 13.1044 11.0778C13.2488 10.9387 13.3321 10.7479 13.3358 10.5475C13.3396 10.347 13.2635 10.1533 13.1244 10.0089H13.12Z" fill="black"/>
</svg>
