<svg width="16" height="16" viewBox="0 0 16 16" fill="none" xmlns="http://www.w3.org/2000/svg">
<path d="M2.88443 5.99153L8.00443 11.2893L13.1244 5.99153C13.2635 5.84713 13.3396 5.6534 13.3358 5.45294C13.3321 5.25249 13.2488 5.06173 13.1044 4.92264C12.96 4.78355 12.7663 4.70752 12.5658 4.71127C12.3654 4.71502 12.1746 4.79824 12.0355 4.94264L8.00443 9.11597L3.96888 4.94264C3.82978 4.79824 3.63903 4.71502 3.43857 4.71127C3.23812 4.70751 3.04438 4.78355 2.89999 4.92264C2.75559 5.06173 2.67236 5.25249 2.66861 5.45294C2.66486 5.6534 2.7409 5.84713 2.87999 5.99153L2.88443 5.99153Z" fill="black"/>
</svg>
