<svg width="16" height="16" viewBox="0 0 16 16" fill="none" xmlns="http://www.w3.org/2000/svg">
<path d="M2.66667 15.1111C2.5488 15.1111 2.43575 15.0643 2.3524 14.981C2.26905 14.8976 2.22223 14.7846 2.22223 14.6667V1.33336C2.22223 1.21549 2.26905 1.10244 2.3524 1.01909C2.43575 0.935741 2.5488 0.888916 2.66667 0.888916C2.78455 0.888916 2.89759 0.935741 2.98094 1.01909C3.06429 1.10244 3.11112 1.21549 3.11112 1.33336V14.6667C3.11112 14.7846 3.06429 14.8976 2.98094 14.981C2.89759 15.0643 2.78455 15.1111 2.66667 15.1111Z" fill="black"/>
<path d="M13.5778 1.69779C13.5102 1.65878 13.4336 1.63825 13.3556 1.63825C13.2775 1.63825 13.2009 1.65878 13.1333 1.69779C12.2717 2.05997 11.3432 2.23568 10.4089 2.21335C9.6039 2.15445 8.81992 1.92894 8.10667 1.55113C7.41799 1.18612 6.66156 0.96675 5.88444 0.906681C5.23854 0.899375 4.59773 1.02179 4 1.26668V2.25779C4.57904 1.94097 5.22884 1.77584 5.88889 1.77779C6.5425 1.84264 7.17687 2.03597 7.75556 2.34668C8.58228 2.77838 9.49117 3.02984 10.4222 3.08446C11.2581 3.08737 12.0896 2.96451 12.8889 2.72001V8.42224C12.093 8.70476 11.2534 8.84468 10.4089 8.83557C9.6039 8.77667 8.81992 8.55116 8.10667 8.17335C7.41799 7.80834 6.66156 7.58897 5.88444 7.5289C5.23732 7.52723 4.59647 7.6557 4 7.90668V8.8889C4.57904 8.57208 5.22884 8.40695 5.88889 8.4089C6.5425 8.47375 7.17687 8.66708 7.75556 8.97779C8.58228 9.40949 9.49117 9.66095 10.4222 9.71557C11.4909 9.73777 12.5519 9.53012 13.5333 9.10668C13.6066 9.06975 13.6683 9.01324 13.7114 8.94342C13.7546 8.8736 13.7775 8.7932 13.7778 8.71113V2.07557C13.7789 2.00087 13.7611 1.92709 13.7262 1.86106C13.6912 1.79503 13.6402 1.73888 13.5778 1.69779Z" fill="black"/>
</svg>
