<svg width="16" height="16" viewBox="0 0 16 16" fill="none" xmlns="http://www.w3.org/2000/svg">
<path d="M2.63109 0.888916C2.51322 0.888916 2.40017 0.935741 2.31682 1.01909C2.23347 1.10244 2.18665 1.21549 2.18665 1.33336V14.6667C2.18665 14.7846 2.23347 14.8976 2.31682 14.981C2.40017 15.0643 2.51322 15.1111 2.63109 15.1111C2.74896 15.1111 2.86201 15.0643 2.94536 14.981C3.02871 14.8976 3.07553 14.7846 3.07553 14.6667V1.33336C3.07553 1.21549 3.02871 1.10244 2.94536 1.01909C2.86201 0.935741 2.74896 0.888916 2.63109 0.888916Z" fill="black"/>
<path d="M13.5556 1.6978C13.488 1.6588 13.4113 1.63826 13.3333 1.63826C13.2553 1.63826 13.1787 1.6588 13.1111 1.6978C12.2495 2.05999 11.321 2.23569 10.3867 2.21336C9.58168 2.15446 8.7977 1.92895 8.08444 1.55114C7.39847 1.18052 6.64354 0.955101 5.86667 0.888916C5.22553 0.889615 4.59096 1.01804 4 1.26669V8.88892C4.57904 8.57209 5.22884 8.40697 5.88889 8.40892C6.5425 8.47376 7.17687 8.66709 7.75556 8.97781C8.58228 9.40951 9.49117 9.66096 10.4222 9.71558C11.4909 9.73778 12.5519 9.53014 13.5333 9.10669C13.6066 9.06976 13.6683 9.01325 13.7114 8.94343C13.7546 8.87362 13.7775 8.79321 13.7778 8.71114V2.07558C13.7765 1.99878 13.7554 1.92361 13.7165 1.8574C13.6775 1.79119 13.6221 1.7362 13.5556 1.6978Z" fill="black"/>
</svg>
