<svg width="16" height="16" viewBox="0 0 16 16" fill="none" xmlns="http://www.w3.org/2000/svg">
<path d="M8.00001 14.4133C7.90181 14.413 7.80648 14.3802 7.7289 14.32C5.25779 12.4 3.55557 10.7467 2.36446 9.11556C0.844457 7.03112 0.49779 5.10667 1.33335 3.39556C1.9289 2.17334 3.64001 1.17334 5.64001 1.75556C6.59359 2.031 7.42556 2.62169 8.00001 3.43112C8.57446 2.62169 9.40644 2.031 10.36 1.75556C12.3556 1.18223 14.0711 2.17334 14.6667 3.39556C15.5022 5.10667 15.1556 7.03112 13.6356 9.11556C12.4445 10.7467 10.7422 12.4 8.27112 14.32C8.19355 14.3802 8.09821 14.413 8.00001 14.4133ZM4.50223 2.48C4.02635 2.46148 3.5544 2.57291 3.13705 2.80234C2.71971 3.03176 2.37272 3.37051 2.13335 3.78223C1.44446 5.19556 1.75557 6.76889 3.08446 8.58667C4.49671 10.4083 6.15042 12.0291 8.00001 13.4044C9.84931 12.0304 11.503 10.4111 12.9156 8.59112C14.2489 6.76889 14.5556 5.19556 13.8667 3.78667C13.4222 2.89778 12.0889 2.19112 10.6045 2.60889C10.1285 2.74956 9.68722 2.98832 9.30908 3.30982C8.93095 3.63131 8.62431 4.02841 8.4089 4.47556C8.37542 4.55708 8.31845 4.6268 8.24525 4.67586C8.17205 4.72493 8.08592 4.75113 7.99779 4.75113C7.90967 4.75113 7.82353 4.72493 7.75033 4.67586C7.67713 4.6268 7.62016 4.55708 7.58668 4.47556C7.37289 4.02729 7.06678 3.62926 6.68841 3.30757C6.31004 2.98588 5.86795 2.74778 5.39112 2.60889C5.10222 2.52498 4.80307 2.48161 4.50223 2.48Z" fill="black"/>
</svg>
