<svg width="16" height="16" viewBox="0 0 16 16" fill="none" xmlns="http://www.w3.org/2000/svg">
<path d="M14.6667 3.39556C14.0711 2.17334 12.3556 1.17334 10.36 1.75556C9.40644 2.031 8.57446 2.62169 8.00001 3.43112C7.42556 2.62169 6.59359 2.031 5.64001 1.75556C3.64001 1.18223 1.9289 2.17334 1.33335 3.39556C0.49779 5.10667 0.844457 7.03112 2.36446 9.11556C3.55557 10.7467 5.25779 12.4 7.7289 14.32C7.807 14.3809 7.9032 14.414 8.00223 14.414C8.10127 14.414 8.19747 14.3809 8.27557 14.32C10.7422 12.4045 12.4489 10.7644 13.64 9.11556C15.1556 7.03112 15.5022 5.10667 14.6667 3.39556Z" fill="black"/>
</svg>
