<svg width="16" height="16" viewBox="0 0 16 16" fill="none" xmlns="http://www.w3.org/2000/svg">
<path d="M14.6667 8.44447C14.6082 8.44481 14.5502 8.4336 14.496 8.41148C14.4419 8.38936 14.3926 8.35677 14.3511 8.31558L7.99999 1.96002L1.64888 8.31558C1.56386 8.38839 1.45449 8.42644 1.34263 8.42212C1.23078 8.4178 1.12467 8.37143 1.04552 8.29228C0.966366 8.21312 0.919996 8.10702 0.915676 7.99516C0.911355 7.8833 0.949402 7.77394 1.02221 7.68891L7.68888 1.02225C7.77215 0.939468 7.8848 0.893005 8.00221 0.893005C8.11963 0.893005 8.23227 0.939468 8.31555 1.02225L14.9822 7.68891C15.0434 7.75131 15.0848 7.83034 15.1013 7.91614C15.1178 8.00194 15.1086 8.09069 15.0749 8.17131C15.0413 8.25193 14.9846 8.32084 14.912 8.36942C14.8393 8.418 14.754 8.44411 14.6667 8.44447Z" fill="black"/>
<path d="M7.99999 3.46222L2.66666 8.81333V14.2222C2.66666 14.458 2.76031 14.6841 2.92701 14.8508C3.0937 15.0175 3.3198 15.1111 3.55555 15.1111H6.66666V10.6667H9.33332V15.1111H12.4444C12.6802 15.1111 12.9063 15.0175 13.073 14.8508C13.2397 14.6841 13.3333 14.458 13.3333 14.2222V8.78222L7.99999 3.46222Z" fill="black"/>
</svg>
