<svg width="16" height="16" viewBox="0 0 16 16" fill="none" xmlns="http://www.w3.org/2000/svg">
<path d="M14.9822 7.68446L8.31555 1.01779C8.23228 0.935013 8.11963 0.88855 8.00221 0.88855C7.8848 0.88855 7.77215 0.935013 7.68888 1.01779L1.02221 7.68446C0.949402 7.76948 0.911355 7.87885 0.915676 7.9907C0.919996 8.10256 0.966366 8.20867 1.04552 8.28782C1.12467 8.36697 1.23078 8.41334 1.34263 8.41766C1.45449 8.42198 1.56386 8.38394 1.64888 8.31113L7.99999 1.96001L14.3511 8.31557C14.4361 8.38838 14.5455 8.42643 14.6573 8.42211C14.7692 8.41779 14.8753 8.37142 14.9545 8.29226C15.0336 8.21311 15.08 8.107 15.0843 7.99515C15.0886 7.88329 15.0506 7.77393 14.9778 7.6889L14.9822 7.68446Z" fill="black"/>
<path d="M12.4444 14.2222H10.2222V9.77775H5.77777V14.2222H3.55555V7.99998L2.66666 8.88887V14.2222C2.66666 14.4579 2.76031 14.684 2.92701 14.8507C3.0937 15.0174 3.3198 15.1111 3.55555 15.1111H6.66666V10.6666H9.33332V15.1111H12.4444C12.6802 15.1111 12.9063 15.0174 13.073 14.8507C13.2397 14.684 13.3333 14.4579 13.3333 14.2222V8.7822L12.4444 7.89331V14.2222Z" fill="black"/>
</svg>
