<svg width="16" height="16" viewBox="0 0 16 16" fill="none" xmlns="http://www.w3.org/2000/svg">
<path d="M3.11112 2.66666H10.2222V7.02222H11.1111V2.66666C11.1111 2.43091 11.0175 2.20482 10.8508 2.03812C10.6841 1.87142 10.458 1.77777 10.2222 1.77777H3.11112C2.87537 1.77777 2.64928 1.87142 2.48258 2.03812C2.31588 2.20482 2.22223 2.43091 2.22223 2.66666V13.3333C2.22223 13.5691 2.31588 13.7952 2.48258 13.9619C2.64928 14.1286 2.87537 14.2222 3.11112 14.2222H10.2222C10.458 14.2222 10.6841 14.1286 10.8508 13.9619C11.0175 13.7952 11.1111 13.5691 11.1111 13.3333H3.11112V2.66666Z" fill="black"/>
<path d="M12.5156 7.67999C12.4305 7.60718 12.3212 7.56913 12.2093 7.57345C12.0975 7.57777 11.9914 7.62414 11.9122 7.7033C11.833 7.78245 11.7867 7.88855 11.7824 8.00041C11.778 8.11227 11.8161 8.22163 11.8889 8.30666L13.3911 9.77777H6.94667C6.8288 9.77777 6.71575 9.82459 6.6324 9.90794C6.54905 9.99129 6.50223 10.1043 6.50223 10.2222C6.50223 10.3401 6.54905 10.4531 6.6324 10.5365C6.71575 10.6198 6.8288 10.6667 6.94667 10.6667H13.3911L11.8889 12.2044C11.8424 12.2443 11.8046 12.2933 11.7779 12.3484C11.7512 12.4036 11.7362 12.4636 11.7339 12.5249C11.7315 12.5861 11.7418 12.6471 11.7642 12.7041C11.7865 12.7612 11.8204 12.813 11.8637 12.8563C11.907 12.8996 11.9588 12.9335 12.0159 12.9558C12.0729 12.9782 12.1339 12.9885 12.1951 12.9861C12.2563 12.9838 12.3164 12.9688 12.3715 12.9421C12.4267 12.9154 12.4757 12.8776 12.5156 12.8311L15.1111 10.2533L12.5156 7.67999Z" fill="black"/>
</svg>
