<svg width="16" height="16" viewBox="0 0 16 16" fill="none" xmlns="http://www.w3.org/2000/svg">
<path d="M7.25779 2.24442C8.22052 2.24354 9.16187 2.52822 9.96278 3.06244C10.7637 3.59667 11.3881 4.35643 11.7572 5.24562C12.1262 6.13481 12.2232 7.11347 12.0359 8.0578C11.8487 9.00214 11.3855 9.86971 10.7051 10.5508C10.0246 11.2318 9.15747 11.6958 8.21331 11.8839C7.26915 12.0721 6.2904 11.9759 5.40087 11.6077C4.51135 11.2395 3.75101 10.6157 3.21606 9.81533C2.68111 9.01491 2.39557 8.07382 2.39557 7.11109C2.40141 5.82294 2.91541 4.58914 3.82586 3.67785C4.73632 2.76657 5.96964 2.25144 7.25779 2.24442ZM7.25779 1.33331C6.11505 1.33331 4.99798 1.67217 4.04783 2.30704C3.09768 2.94191 2.35713 3.84428 1.91982 4.90003C1.48251 5.95578 1.3681 7.1175 1.59103 8.23828C1.81397 9.35906 2.36425 10.3886 3.17229 11.1966C3.98032 12.0046 5.00982 12.5549 6.1306 12.7779C7.25138 13.0008 8.4131 12.8864 9.46885 12.4491C10.5246 12.0118 11.427 11.2712 12.0618 10.3211C12.6967 9.3709 13.0356 8.25383 13.0356 7.11109C13.0356 5.57873 12.4268 4.10913 11.3433 3.02558C10.2598 1.94204 8.79015 1.33331 7.25779 1.33331Z" fill="black"/>
<path d="M15.5556 14.7956L12.28 11.4978L11.6489 12.1245L14.9245 15.4222C14.9656 15.4637 15.0145 15.4966 15.0684 15.5192C15.1223 15.5417 15.18 15.5534 15.2384 15.5536C15.2968 15.5538 15.3547 15.5425 15.4087 15.5204C15.4628 15.4982 15.5119 15.4656 15.5533 15.4245C15.5948 15.3833 15.6277 15.3344 15.6502 15.2805C15.6728 15.2267 15.6845 15.1689 15.6847 15.1105C15.6849 15.0521 15.6736 14.9942 15.6515 14.9402C15.6293 14.8862 15.5967 14.837 15.5556 14.7956Z" fill="black"/>
</svg>
