<svg width="16" height="16" viewBox="0 0 16 16" fill="none" xmlns="http://www.w3.org/2000/svg">
<path d="M5.33332 7.17335H4.94665C4.41899 7.15428 3.89304 7.24386 3.40143 7.43652C2.90983 7.62919 2.46307 7.92083 2.08887 8.29335L1.98221 8.4178V12.0978H3.79554V10.0089L4.03999 9.73335L4.1511 9.60446C4.72973 9.01002 5.45011 8.57259 6.24443 8.33335C5.84674 8.03074 5.53309 7.63141 5.33332 7.17335Z" fill="black"/>
<path d="M13.9289 8.27998C13.5547 7.90746 13.1079 7.61582 12.6163 7.42316C12.1247 7.23049 11.5988 7.14091 11.0711 7.15999C10.9093 7.16044 10.7476 7.16934 10.5867 7.18665C10.3832 7.61639 10.0781 7.99011 9.69778 8.27554C10.5458 8.51014 11.314 8.97105 11.92 9.60887L12.0311 9.73332L12.2711 10.0089V12.1022H14.0222V8.40443L13.9289 8.27998Z" fill="black"/>
<path d="M4.93335 6.30668H5.07113C5.00711 5.75701 5.10356 5.20056 5.34883 4.7045C5.5941 4.20844 5.97771 3.79397 6.45335 3.51113C6.28093 3.24773 6.04307 3.03362 5.76304 2.88977C5.48301 2.74592 5.17043 2.67726 4.8559 2.69052C4.54136 2.70377 4.23566 2.79848 3.96873 2.96538C3.7018 3.13228 3.48279 3.36564 3.33315 3.64261C3.18351 3.91959 3.10836 4.23067 3.11507 4.54542C3.12178 4.86016 3.21011 5.16776 3.37142 5.43811C3.53273 5.70845 3.76148 5.93227 4.03528 6.08764C4.30908 6.24302 4.61854 6.32462 4.93335 6.32446V6.30668Z" fill="black"/>
<path d="M10.8578 5.97334C10.8632 6.07549 10.8632 6.17785 10.8578 6.28001C10.9431 6.29353 11.0292 6.30095 11.1156 6.30223H11.2C11.5134 6.28552 11.8172 6.18793 12.0817 6.01897C12.3462 5.85002 12.5625 5.61545 12.7095 5.3381C12.8564 5.06075 12.929 4.75008 12.9203 4.43633C12.9115 4.12258 12.8217 3.81644 12.6595 3.54772C12.4973 3.279 12.2683 3.05685 11.9948 2.90291C11.7213 2.74896 11.4125 2.66847 11.0987 2.66926C10.7848 2.67005 10.4765 2.75209 10.2037 2.90741C9.93096 3.06273 9.70307 3.28603 9.54224 3.55556C9.9445 3.8182 10.2753 4.17659 10.5049 4.59857C10.7345 5.02055 10.8557 5.49294 10.8578 5.97334Z" fill="black"/>
<path d="M7.94223 7.96442C9.03944 7.96442 9.9289 7.07496 9.9289 5.97776C9.9289 4.88055 9.03944 3.99109 7.94223 3.99109C6.84503 3.99109 5.95557 4.88055 5.95557 5.97776C5.95557 7.07496 6.84503 7.96442 7.94223 7.96442Z" fill="black"/>
<path d="M8.04888 9.02223C7.46846 8.9988 6.88929 9.09303 6.34623 9.29925C5.80317 9.50548 5.30745 9.81944 4.88888 10.2222L4.77777 10.3467V13.16C4.77951 13.2516 4.79928 13.342 4.83595 13.426C4.87263 13.51 4.9255 13.586 4.99154 13.6495C5.05757 13.7131 5.13548 13.763 5.22082 13.7965C5.30616 13.8299 5.39724 13.8462 5.48888 13.8445H10.5955C10.6872 13.8462 10.7783 13.8299 10.8636 13.7965C10.9489 13.763 11.0269 13.7131 11.0929 13.6495C11.1589 13.586 11.2118 13.51 11.2485 13.426C11.2852 13.342 11.3049 13.2516 11.3067 13.16V10.3556L11.2 10.2222C10.7841 9.8182 10.2901 9.50336 9.74829 9.29701C9.20644 9.09066 8.62815 8.99716 8.04888 9.02223Z" fill="black"/>
</svg>
