<svg width="16" height="16" viewBox="0 0 16 16" fill="none" xmlns="http://www.w3.org/2000/svg">
<path d="M7.95555 7.68892C9.15555 7.68892 10.0889 6.71114 10.0889 5.51114C10.0889 4.31114 9.1111 3.37781 7.9111 3.37781C6.7111 3.37781 5.77777 4.35559 5.77777 5.51114C5.77777 6.71114 6.75555 7.68892 7.95555 7.68892ZM7.9111 4.2667C7.95555 4.2667 7.95555 4.2667 7.9111 4.2667C8.62222 4.2667 9.19999 4.84447 9.19999 5.55559C9.19999 6.2667 8.62222 6.80003 7.9111 6.80003C7.19999 6.80003 6.66666 6.22225 6.66666 5.55559C6.66666 4.84447 7.24444 4.2667 7.9111 4.2667Z" fill="black"/>
<path d="M14.5333 7.4222C13.6889 6.66664 12.5778 6.26664 11.4222 6.31108H11.0667C10.9778 6.66664 10.8444 6.97775 10.6667 7.24442C10.9333 7.19997 11.1555 7.19997 11.4222 7.19997C12.2667 7.15553 13.1111 7.42219 13.7778 7.91108V11.1111H14.6667V7.55553L14.5333 7.4222Z" fill="black"/>
<path d="M10.4 3.46669C10.6222 2.93336 11.2444 2.66669 11.8222 2.88891C12.3555 3.11113 12.6222 3.73336 12.4 4.31113C12.2222 4.71113 11.8222 4.9778 11.4222 4.9778C11.3333 4.9778 11.2 4.9778 11.1111 4.93336C11.1555 5.15558 11.1555 5.3778 11.1555 5.55558V5.82224C11.2444 5.82224 11.3333 5.86669 11.4222 5.86669C12.5333 5.86669 13.4222 4.9778 13.4222 3.91113C13.4222 2.80002 12.5333 1.91113 11.4667 1.91113C10.7555 1.91113 10.1333 2.26669 9.77777 2.88891C9.99999 3.02224 10.2222 3.20002 10.4 3.46669Z" fill="black"/>
<path d="M5.33334 7.28892C5.15557 7.02225 5.02223 6.71114 4.93334 6.35558H4.57779C3.42223 6.31114 2.31112 6.71114 1.46668 7.42225L1.33334 7.55558V11.1111H2.22223V7.91114C2.93334 7.42225 3.73334 7.15558 4.57779 7.20003C4.84445 7.20003 5.11112 7.24447 5.33334 7.28892Z" fill="black"/>
<path d="M4.57777 5.82224C4.66666 5.82224 4.75555 5.82224 4.84444 5.77779V5.51113C4.84444 5.28891 4.84444 5.06668 4.88888 4.88891C4.8 4.93335 4.66666 4.93335 4.57777 4.93335C4 4.93335 3.51111 4.44446 3.51111 3.86668C3.51111 3.28891 4 2.80002 4.57777 2.80002C5.02222 2.80002 5.42222 3.06668 5.6 3.46668C5.77777 3.24446 6.04444 3.02224 6.26666 2.84446C5.68888 1.91113 4.48888 1.60002 3.55555 2.17779C2.62222 2.75557 2.31111 3.95557 2.88888 4.88891C3.24444 5.46668 3.86666 5.82224 4.57777 5.82224Z" fill="black"/>
<path d="M11.6 10.0889L11.5111 9.95558C10.6222 8.9778 9.37779 8.40002 8.04446 8.44447C6.71112 8.40002 5.42224 8.9778 4.53335 9.95558L4.44446 10.0889V13.4667C4.44446 13.8667 4.75557 14.2222 5.20001 14.2222H10.8889C11.2889 14.2222 11.6445 13.8667 11.6445 13.4667V10.0889H11.6ZM10.7111 13.3334H5.33335V10.4C6.04446 9.68891 7.02224 9.33336 8.04446 9.33336C9.02224 9.28891 10 9.68891 10.7111 10.4V13.3334Z" fill="black"/>
</svg>
