<svg width="16" height="16" viewBox="0 0 16 16" fill="none" xmlns="http://www.w3.org/2000/svg">
<path d="M8 7.55554C8.61532 7.55554 9.21682 7.37307 9.72844 7.03122C10.2401 6.68937 10.6388 6.20348 10.8743 5.635C11.1098 5.06652 11.1714 4.44097 11.0513 3.83748C10.9313 3.23398 10.635 2.67963 10.1999 2.24454C9.76479 1.80944 9.21044 1.51314 8.60694 1.39309C8.00345 1.27305 7.37791 1.33466 6.80943 1.57013C6.24094 1.80561 5.75506 2.20437 5.4132 2.71598C5.07135 3.2276 4.88889 3.82911 4.88889 4.44443C4.88889 5.26954 5.21666 6.06087 5.80011 6.64431C6.38356 7.22776 7.17488 7.55554 8 7.55554ZM8 2.2222C8.43951 2.2222 8.86915 2.35253 9.2346 2.59672C9.60004 2.8409 9.88487 3.18796 10.0531 3.59402C10.2213 4.00008 10.2653 4.44689 10.1795 4.87796C10.0938 5.30903 9.88213 5.70499 9.57134 6.01577C9.26056 6.32656 8.8646 6.5382 8.43353 6.62395C8.00246 6.70969 7.55565 6.66569 7.14959 6.49749C6.74353 6.3293 6.39647 6.04447 6.15229 5.67903C5.90811 5.31358 5.77777 4.88394 5.77777 4.44443C5.77777 3.85506 6.0119 3.28982 6.42865 2.87308C6.8454 2.45633 7.41063 2.2222 8 2.2222Z" fill="black"/>
<path d="M13.5422 10.8311C12.8295 10.0778 11.9706 9.47773 11.018 9.06764C10.0655 8.65755 9.0393 8.44604 8.00223 8.44604C6.96516 8.44604 5.93898 8.65755 4.98643 9.06764C4.03389 9.47773 3.17498 10.0778 2.46223 10.8311C2.3077 10.9962 2.22188 11.2139 2.22223 11.44V13.7778C2.22223 14.0135 2.31588 14.2396 2.48258 14.4063C2.64928 14.573 2.87537 14.6667 3.11112 14.6667H12.8889C13.1246 14.6667 13.3507 14.573 13.5174 14.4063C13.6841 14.2396 13.7778 14.0135 13.7778 13.7778V11.44C13.7793 11.2145 13.6951 10.9968 13.5422 10.8311ZM12.8889 13.7778H3.11112V11.4355C3.741 10.7723 4.49925 10.2441 5.33972 9.88323C6.1802 9.52232 7.08532 9.33621 8.00001 9.33621C8.9147 9.33621 9.81982 9.52232 10.6603 9.88323C11.5008 10.2441 12.259 10.7723 12.8889 11.4355V13.7778Z" fill="black"/>
</svg>
