<svg width="16" height="16" viewBox="0 0 16 16" fill="none" xmlns="http://www.w3.org/2000/svg">
<path d="M13.6045 10.8977C12.8903 10.124 12.0236 9.50647 11.0591 9.08412C10.0945 8.66177 9.05298 8.44373 8.00001 8.44373C6.94704 8.44373 5.90548 8.66177 4.94092 9.08412C3.97637 9.50647 3.10972 10.124 2.39556 10.8977C2.2853 11.0197 2.22363 11.1778 2.22223 11.3422V14.0089C2.22457 14.1841 2.29583 14.3514 2.42061 14.4745C2.54538 14.5976 2.71361 14.6667 2.8889 14.6666H13.1111C13.2879 14.6666 13.4575 14.5964 13.5825 14.4714C13.7075 14.3464 13.7778 14.1768 13.7778 14V11.3333C13.7742 11.172 13.7127 11.0174 13.6045 10.8977Z" fill="black"/>
<path d="M8 7.55554C9.71822 7.55554 11.1111 6.16264 11.1111 4.44442C11.1111 2.7262 9.71822 1.33331 8 1.33331C6.28178 1.33331 4.88889 2.7262 4.88889 4.44442C4.88889 6.16264 6.28178 7.55554 8 7.55554Z" fill="black"/>
</svg>
